<?xml version="1.0" encoding="UTF-8"?>
<!DOCTYPE svg PUBLIC "-//W3C//DTD SVG 1.1//EN"
    "http://www.w3.org/Graphics/SVG/1.1/DTD/svg11.dtd"><svg xmlns="http://www.w3.org/2000/svg" height="600.0000" stroke-opacity="1" viewBox="0 0 800 600" font-size="1" width="800.0000" xmlns:xlink="http://www.w3.org/1999/xlink" stroke="rgb(0,0,0)" version="1.1"><defs></defs><g stroke-linejoin="bevel" stroke-opacity="0.0" fill-opacity="1.0" stroke="rgb(0,0,0)" stroke-width="0.0" fill="rgb(255,255,255)" stroke-linecap="butt" stroke-miterlimit="10.0"><path d="M 0.0000,0.0000 v 600.0000 h 800.0000 v -600.0000 Z"/></g><g stroke-linejoin="bevel" stroke-opacity="0.0" fill-opacity="1.0" stroke="rgb(0,0,0)" stroke-width="0.0" fill="rgb(0,0,0)" stroke-linecap="butt" stroke-miterlimit="10.0"><path d="M 177.1561,20.1694 ZM 178.0801,17.8850 l 7.3922,-11.2680 h -6.6992 v -3.1828 h 11.3450 v 2.2844 l -7.3922,11.2680 h 7.4692 v 3.1828 h -12.1150 v -2.2844 ZM 191.0421,20.1694 ZM 194.5842,5.5647 c -0.9497,-0.0000 -1.5657,-0.5518 -1.5657 -0.5518c -0.6160,-0.5518 -0.6160,-1.4245 -0.6160 -1.4245c 0.0000,-0.8727 0.6160,-1.4117 0.6160 -1.4117c 0.6160,-0.5390 1.5657,-0.5390 1.5657 -0.5390c 0.9754,0.0000 1.5785,0.5390 1.5785 0.5390c 0.6032,0.5390 0.6032,1.4117 0.6032 1.4117c 0.0000,0.8727 -0.6032,1.4245 -0.6032 1.4245c -0.6032,0.5518 -1.5785,0.5518 -1.5785 0.5518ZM 194.5842,5.5647 ZM 192.7105,7.4384 h 3.7731 v 12.7310 h -3.7731 v -12.7310 ZM 198.1263,20.1694 ZM 203.5678,21.1704 v 3.7218 h -3.7731 v -17.4538 h 3.0801 l 0.2567,1.2577 h 0.1027 c 0.7444,-0.6674 1.6812,-1.1165 1.6812 -1.1165c 0.9369,-0.4492 1.9379,-0.4492 1.9379 -0.4492c 1.1550,0.0000 2.0791,0.4620 2.0791 0.4620c 0.9240,0.4620 1.5657,1.3090 1.5657 1.3090c 0.6417,0.8470 0.9882,2.0406 0.9882 2.0406c 0.3465,1.1935 0.3465,2.6566 0.3465 2.6566c 0.0000,1.6427 -0.4492,2.9132 -0.4492 2.9132c -0.4492,1.2705 -1.2064,2.1561 -1.2064 2.1561c -0.7572,0.8855 -1.7197,1.3475 -1.7197 1.3475c -0.9625,0.4620 -1.9892,0.4620 -1.9892 0.4620c -0.8214,-0.0000 -1.5914,-0.3465 -1.5914 -0.3465c -0.7700,-0.3465 -1.4374,-0.9882 -1.4374 -0.9882ZM 203.5678,21.1704 ZM 203.5678,16.5760 c 0.5133,0.4620 1.0267,0.6417 1.0267 0.6417c 0.5133,0.1797 1.0010,0.1797 1.0010 0.1797c 0.9754,0.0000 1.6684,-0.8855 1.6684 -0.8855c 0.6930,-0.8855 0.6930,-2.8619 0.6930 -2.8619c 0.0000,-3.4394 -2.2074,-3.4394 -2.2074 -3.4394c -1.1037,-0.0000 -2.1817,1.1550 -2.1817 1.1550v 5.2105 ZM 218.1725,20.1694 ZM 226.9507,20.4774 c -1.6940,-0.0000 -3.0929,-0.6032 -3.0929 -0.6032c -1.3989,-0.6032 -2.3999,-1.7325 -2.3999 -1.7325c -1.0010,-1.1294 -1.5529,-2.7464 -1.5529 -2.7464c -0.5518,-1.6170 -0.5518,-3.6704 -0.5518 -3.6704c 0.0000,-2.0534 0.5518,-3.6576 0.5518 -3.6576c 0.5518,-1.6042 1.5529,-2.6951 1.5529 -2.6951c 1.0010,-1.0909 2.3999,-1.6684 2.3999 -1.6684c 1.3989,-0.5775 3.0929,-0.5775 3.0929 -0.5775c 1.6940,0.0000 3.0929,0.5775 3.0929 0.5775c 1.3989,0.5775 2.3999,1.6812 2.3999 1.6812c 1.0010,1.1037 1.5529,2.7079 1.5529 2.7079c 0.5518,1.6042 0.5518,3.6319 0.5518 3.6319c 0.0000,2.0534 -0.5518,3.6704 -0.5518 3.6704c -0.5518,1.6170 -1.5529,2.7464 -1.5529 2.7464c -1.0010,1.1294 -2.3999,1.7325 -2.3999 1.7325c -1.3989,0.6032 -3.0929,0.6032 -3.0929 0.6032ZM 226.9507,20.4774 ZM 226.9507,17.2177 c 1.7197,0.0000 2.7207,-1.4759 2.7207 -1.4759c 1.0010,-1.4759 1.0010,-4.0169 1.0010 -4.0169c 0.0000,-2.5154 -1.0010,-3.9271 -1.0010 -3.9271c -1.0010,-1.4117 -2.7207,-1.4117 -2.7207 -1.4117c -1.7197,-0.0000 -2.7207,1.4117 -2.7207 1.4117c -1.0010,1.4117 -1.0010,3.9271 -1.0010 3.9271c 0.0000,2.5411 1.0010,4.0169 1.0010 4.0169c 1.0010,1.4759 2.7207,1.4759 2.7207 1.4759ZM 235.7290,20.1694 ZM 241.1704,21.1704 v 3.7218 h -3.7731 v -17.4538 h 3.0801 l 0.2567,1.2577 h 0.1027 c 0.7444,-0.6674 1.6812,-1.1165 1.6812 -1.1165c 0.9369,-0.4492 1.9379,-0.4492 1.9379 -0.4492c 1.1550,0.0000 2.0791,0.4620 2.0791 0.4620c 0.9240,0.4620 1.5657,1.3090 1.5657 1.3090c 0.6417,0.8470 0.9882,2.0406 0.9882 2.0406c 0.3465,1.1935 0.3465,2.6566 0.3465 2.6566c 0.0000,1.6427 -0.4492,2.9132 -0.4492 2.9132c -0.4492,1.2705 -1.2064,2.1561 -1.2064 2.1561c -0.7572,0.8855 -1.7197,1.3475 -1.7197 1.3475c -0.9625,0.4620 -1.9892,0.4620 -1.9892 0.4620c -0.8214,-0.0000 -1.5914,-0.3465 -1.5914 -0.3465c -0.7700,-0.3465 -1.4374,-0.9882 -1.4374 -0.9882ZM 241.1704,21.1704 ZM 241.1704,16.5760 c 0.5133,0.4620 1.0267,0.6417 1.0267 0.6417c 0.5133,0.1797 1.0010,0.1797 1.0010 0.1797c 0.9754,0.0000 1.6684,-0.8855 1.6684 -0.8855c 0.6930,-0.8855 0.6930,-2.8619 0.6930 -2.8619c 0.0000,-3.4394 -2.2074,-3.4394 -2.2074 -3.4394c -1.1037,-0.0000 -2.1817,1.1550 -2.1817 1.1550v 5.2105 ZM 250.4363,20.1694 ZM 251.3604,13.8039 c 0.0000,-1.5400 0.5133,-2.7849 0.5133 -2.7849c 0.5133,-1.2449 1.3475,-2.1047 1.3475 -2.1047c 0.8342,-0.8599 1.9122,-1.3219 1.9122 -1.3219c 1.0780,-0.4620 2.2331,-0.4620 2.2331 -0.4620c 1.3604,0.0000 2.3742,0.4620 2.3742 0.4620c 1.0139,0.4620 1.6940,1.2834 1.6940 1.2834c 0.6802,0.8214 1.0139,1.9379 1.0139 1.9379c 0.3337,1.1165 0.3337,2.4256 0.3337 2.4256c 0.0000,0.5133 -0.0513,0.9369 -0.0513 0.9369c -0.0513,0.4235 -0.1027,0.6545 -0.1027 0.6545h -7.6232 c 0.2567,1.4630 1.1422,2.1176 1.1422 2.1176c 0.8855,0.6545 2.1689,0.6545 2.1689 0.6545c 1.3604,0.0000 2.7464,-0.8470 2.7464 -0.8470l 1.2577,2.2844 c -0.9754,0.6674 -2.1689,1.0524 -2.1689 1.0524c -1.1935,0.3850 -2.3486,0.3850 -2.3486 0.3850c -1.3604,-0.0000 -2.5411,-0.4492 -2.5411 -0.4492c -1.1807,-0.4492 -2.0534,-1.3090 -2.0534 -1.3090c -0.8727,-0.8599 -1.3604,-2.0919 -1.3604 -2.0919c -0.4877,-1.2320 -0.4877,-2.8234 -0.4877 -2.8234ZM 251.3604,13.8039 ZM 259.5739,12.4949 c 0.0000,-1.1037 -0.4877,-1.7967 -0.4877 -1.7967c -0.4877,-0.6930 -1.6427,-0.6930 -1.6427 -0.6930c -0.8984,-0.0000 -1.5785,0.6032 -1.5785 0.6032c -0.6802,0.6032 -0.8855,1.8866 -0.8855 1.8866h 4.5945 ZM 263.7320,20.1694 ZM 265.4004,7.4384 h 3.0801 l 0.2567,2.2331 h 0.1027 c 0.6930,-1.3090 1.6684,-1.9251 1.6684 -1.9251c 0.9754,-0.6160 1.9507,-0.6160 1.9507 -0.6160c 0.5390,0.0000 0.8855,0.0642 0.8855 0.0642c 0.3465,0.0642 0.6289,0.1925 0.6289 0.1925l -0.6160,3.2598 c -0.3593,-0.1027 -0.6674,-0.1540 -0.6674 -0.1540c -0.3080,-0.0513 -0.7187,-0.0513 -0.7187 -0.0513c -0.7187,-0.0000 -1.5015,0.5133 -1.5015 0.5133c -0.7829,0.5133 -1.2962,1.8224 -1.2962 1.8224v 7.3922 h -3.7731 v -12.7310 ZM 273.2033,20.1694 ZM 274.4097,16.6273 c 0.0000,-2.0021 1.6940,-3.1314 1.6940 -3.1314c 1.6940,-1.1294 5.4671,-1.5144 5.4671 -1.5144c -0.0513,-0.8470 -0.5133,-1.3475 -0.5133 -1.3475c -0.4620,-0.5005 -1.4887,-0.5005 -1.4887 -0.5005c -0.8214,-0.0000 -1.6427,0.3080 -1.6427 0.3080c -0.8214,0.3080 -1.7454,0.8470 -1.7454 0.8470l -1.3347,-2.4897 c 1.2320,-0.7444 2.5796,-1.2064 2.5796 -1.2064c 1.3475,-0.4620 2.8619,-0.4620 2.8619 -0.4620c 2.4641,0.0000 3.7603,1.3989 3.7603 1.3989c 1.2962,1.3989 1.2962,4.3506 1.2962 4.3506v 7.2895 h -3.0801 l -0.2823,-1.3090 h -0.0770 c -0.8214,0.7187 -1.7325,1.1679 -1.7325 1.1679c -0.9112,0.4492 -1.9892,0.4492 -1.9892 0.4492c -0.8727,-0.0000 -1.5657,-0.2952 -1.5657 -0.2952c -0.6930,-0.2952 -1.1807,-0.8214 -1.1807 -0.8214c -0.4877,-0.5262 -0.7572,-1.2192 -0.7572 -1.2192c -0.2695,-0.6930 -0.2695,-1.5144 -0.2695 -1.5144ZM 274.4097,16.6273 ZM 278.0031,16.3450 c 0.0000,0.6160 0.3978,0.9112 0.3978 0.9112c 0.3978,0.2952 1.0652,0.2952 1.0652 0.2952c 0.6674,0.0000 1.1294,-0.2823 1.1294 -0.2823c 0.4620,-0.2823 0.9754,-0.7957 0.9754 -0.7957v -2.2331 c -2.0277,0.2823 -2.7977,0.8214 -2.7977 0.8214c -0.7700,0.5390 -0.7700,1.2834 -0.7700 1.2834ZM 286.9097,20.1694 ZM 289.0914,10.3901 h -1.7454 v -2.7977 l 1.9507,-0.1540 l 0.4363,-3.3881 h 3.1314 v 3.3881 h 3.0544 v 2.9517 h -3.0544 v 5.1078 c 0.0000,1.0780 0.4492,1.5529 0.4492 1.5529c 0.4492,0.4748 1.1935,0.4748 1.1935 0.4748c 0.3080,0.0000 0.6289,-0.0770 0.6289 -0.0770c 0.3208,-0.0770 0.5775,-0.1797 0.5775 -0.1797l 0.5903,2.7464 c -0.5133,0.1540 -1.2064,0.3080 -1.2064 0.3080c -0.6930,0.1540 -1.6170,0.1540 -1.6170 0.1540c -1.1807,-0.0000 -2.0149,-0.3593 -2.0149 -0.3593c -0.8342,-0.3593 -1.3604,-1.0010 -1.3604 -1.0010c -0.5262,-0.6417 -0.7700,-1.5529 -0.7700 -1.5529c -0.2438,-0.9112 -0.2438,-2.0149 -0.2438 -2.0149v -5.1591 ZM 296.7402,20.1694 ZM 300.2823,5.5647 c -0.9497,-0.0000 -1.5657,-0.5518 -1.5657 -0.5518c -0.6160,-0.5518 -0.6160,-1.4245 -0.6160 -1.4245c 0.0000,-0.8727 0.6160,-1.4117 0.6160 -1.4117c 0.6160,-0.5390 1.5657,-0.5390 1.5657 -0.5390c 0.9754,0.0000 1.5785,0.5390 1.5785 0.5390c 0.6032,0.5390 0.6032,1.4117 0.6032 1.4117c 0.0000,0.8727 -0.6032,1.4245 -0.6032 1.4245c -0.6032,0.5518 -1.5785,0.5518 -1.5785 0.5518ZM 300.2823,5.5647 ZM 298.4086,7.4384 h 3.7731 v 12.7310 h -3.7731 v -12.7310 ZM 303.8244,20.1694 ZM 304.7485,13.8039 c 0.0000,-1.5914 0.5133,-2.8362 0.5133 -2.8362c 0.5133,-1.2449 1.3732,-2.0919 1.3732 -2.0919c 0.8599,-0.8470 1.9892,-1.2962 1.9892 -1.2962c 1.1294,-0.4492 2.3357,-0.4492 2.3357 -0.4492c 1.2064,0.0000 2.3229,0.4492 2.3229 0.4492c 1.1165,0.4492 1.9764,1.2962 1.9764 1.2962c 0.8599,0.8470 1.3732,2.0919 1.3732 2.0919c 0.5133,1.2449 0.5133,2.8362 0.5133 2.8362c 0.0000,1.5914 -0.5133,2.8362 -0.5133 2.8362c -0.5133,1.2449 -1.3732,2.0919 -1.3732 2.0919c -0.8599,0.8470 -1.9764,1.2962 -1.9764 1.2962c -1.1165,0.4492 -2.3229,0.4492 -2.3229 0.4492c -1.2064,-0.0000 -2.3357,-0.4492 -2.3357 -0.4492c -1.1294,-0.4492 -1.9892,-1.2962 -1.9892 -1.2962c -0.8599,-0.8470 -1.3732,-2.0919 -1.3732 -2.0919c -0.5133,-1.2449 -0.5133,-2.8362 -0.5133 -2.8362ZM 304.7485,13.8039 ZM 308.6242,13.8039 c 0.0000,1.6684 0.5775,2.6437 0.5775 2.6437c 0.5775,0.9754 1.7582,0.9754 1.7582 0.9754c 1.1550,0.0000 1.7454,-0.9754 1.7454 -0.9754c 0.5903,-0.9754 0.5903,-2.6437 0.5903 -2.6437c 0.0000,-1.6684 -0.5903,-2.6437 -0.5903 -2.6437c -0.5903,-0.9754 -1.7454,-0.9754 -1.7454 -0.9754c -1.1807,-0.0000 -1.7582,0.9754 -1.7582 0.9754c -0.5775,0.9754 -0.5775,2.6437 -0.5775 2.6437ZM 318.0698,20.1694 ZM 319.7382,7.4384 h 3.0801 l 0.2567,1.6170 h 0.1027 c 0.8214,-0.7700 1.7967,-1.3475 1.7967 -1.3475c 0.9754,-0.5775 2.2844,-0.5775 2.2844 -0.5775c 2.0791,0.0000 3.0159,1.3604 3.0159 1.3604c 0.9369,1.3604 0.9369,3.7731 0.9369 3.7731v 7.9055 h -3.7731 v -7.4179 c 0.0000,-1.3860 -0.3722,-1.8994 -0.3722 -1.8994c -0.3722,-0.5133 -1.1935,-0.5133 -1.1935 -0.5133c -0.7187,-0.0000 -1.2320,0.3208 -1.2320 0.3208c -0.5133,0.3208 -1.1294,0.9112 -1.1294 0.9112v 8.5986 h -3.7731 v -12.7310 ZM 338.0903,20.1694 ZM 343.3265,24.7639 c -1.6170,-2.6437 -2.5026,-5.4928 -2.5026 -5.4928c -0.8855,-2.8491 -0.8855,-6.2372 -0.8855 -6.2372c 0.0000,-3.3881 0.8855,-6.2372 0.8855 -6.2372c 0.8855,-2.8491 2.5026,-5.4928 2.5026 -5.4928l 2.3614,0.9754 c -1.4117,2.5154 -2.0534,5.2618 -2.0534 5.2618c -0.6417,2.7464 -0.6417,5.4928 -0.6417 5.4928c 0.0000,2.7464 0.6417,5.4928 0.6417 5.4928c 0.6417,2.7464 2.0534,5.2618 2.0534 5.2618l -2.3614,0.9754 h 0.0000 ZM 346.9199,20.1694 ZM 348.8963,3.4343 h 3.7731 v 13.5524 h 6.6222 v 3.1828 h -10.3953 v -16.7351 ZM 359.8563,20.1694 ZM 360.7803,13.8039 c 0.0000,-1.5914 0.5133,-2.8362 0.5133 -2.8362c 0.5133,-1.2449 1.3732,-2.0919 1.3732 -2.0919c 0.8599,-0.8470 1.9892,-1.2962 1.9892 -1.2962c 1.1294,-0.4492 2.3357,-0.4492 2.3357 -0.4492c 1.2064,0.0000 2.3229,0.4492 2.3229 0.4492c 1.1165,0.4492 1.9764,1.2962 1.9764 1.2962c 0.8599,0.8470 1.3732,2.0919 1.3732 2.0919c 0.5133,1.2449 0.5133,2.8362 0.5133 2.8362c 0.0000,1.5914 -0.5133,2.8362 -0.5133 2.8362c -0.5133,1.2449 -1.3732,2.0919 -1.3732 2.0919c -0.8599,0.8470 -1.9764,1.2962 -1.9764 1.2962c -1.1165,0.4492 -2.3229,0.4492 -2.3229 0.4492c -1.2064,-0.0000 -2.3357,-0.4492 -2.3357 -0.4492c -1.1294,-0.4492 -1.9892,-1.2962 -1.9892 -1.2962c -0.8599,-0.8470 -1.3732,-2.0919 -1.3732 -2.0919c -0.5133,-1.2449 -0.5133,-2.8362 -0.5133 -2.8362ZM 360.7803,13.8039 ZM 364.6561,13.8039 c 0.0000,1.6684 0.5775,2.6437 0.5775 2.6437c 0.5775,0.9754 1.7582,0.9754 1.7582 0.9754c 1.1550,0.0000 1.7454,-0.9754 1.7454 -0.9754c 0.5903,-0.9754 0.5903,-2.6437 0.5903 -2.6437c 0.0000,-1.6684 -0.5903,-2.6437 -0.5903 -2.6437c -0.5903,-0.9754 -1.7454,-0.9754 -1.7454 -0.9754c -1.1807,-0.0000 -1.7582,0.9754 -1.7582 0.9754c -0.5775,0.9754 -0.5775,2.6437 -0.5775 2.6437ZM 373.8963,20.1694 ZM 374.5123,7.4384 h 3.7474 l 1.2320,5.9035 c 0.1540,0.9497 0.2823,1.8737 0.2823 1.8737c 0.1283,0.9240 0.2823,1.8994 0.2823 1.8994h 0.1027 c 0.1797,-0.9754 0.3465,-1.9251 0.3465 -1.9251c 0.1668,-0.9497 0.3978,-1.8480 0.3978 -1.8480l 1.4117,-5.9035 h 3.2598 l 1.4374,5.9035 c 0.2310,0.9497 0.4107,1.8737 0.4107 1.8737c 0.1797,0.9240 0.3850,1.8994 0.3850 1.8994h 0.1027 c 0.1797,-0.9754 0.2952,-1.8994 0.2952 -1.8994c 0.1155,-0.9240 0.2952,-1.8737 0.2952 -1.8737l 1.2064,-5.9035 h 3.4908 l -3.0544,12.7310 h -4.4148 l -1.1550,-5.0821 c -0.2053,-0.8984 -0.3593,-1.7967 -0.3593 -1.7967c -0.1540,-0.8984 -0.3337,-1.9251 -0.3337 -1.9251h -0.1027 c -0.1797,1.0267 -0.3208,1.9251 -0.3208 1.9251c -0.1412,0.8984 -0.3208,1.7967 -0.3208 1.7967l -1.1294,5.0821 h -4.3121 ZM 393.6088,20.1694 ZM 394.5329,13.8039 c 0.0000,-1.5400 0.5133,-2.7849 0.5133 -2.7849c 0.5133,-1.2449 1.3475,-2.1047 1.3475 -2.1047c 0.8342,-0.8599 1.9122,-1.3219 1.9122 -1.3219c 1.0780,-0.4620 2.2331,-0.4620 2.2331 -0.4620c 1.3604,0.0000 2.3742,0.4620 2.3742 0.4620c 1.0139,0.4620 1.6940,1.2834 1.6940 1.2834c 0.6802,0.8214 1.0139,1.9379 1.0139 1.9379c 0.3337,1.1165 0.3337,2.4256 0.3337 2.4256c 0.0000,0.5133 -0.0513,0.9369 -0.0513 0.9369c -0.0513,0.4235 -0.1027,0.6545 -0.1027 0.6545h -7.6232 c 0.2567,1.4630 1.1422,2.1176 1.1422 2.1176c 0.8855,0.6545 2.1689,0.6545 2.1689 0.6545c 1.3604,0.0000 2.7464,-0.8470 2.7464 -0.8470l 1.2577,2.2844 c -0.9754,0.6674 -2.1689,1.0524 -2.1689 1.0524c -1.1935,0.3850 -2.3486,0.3850 -2.3486 0.3850c -1.3604,-0.0000 -2.5411,-0.4492 -2.5411 -0.4492c -1.1807,-0.4492 -2.0534,-1.3090 -2.0534 -1.3090c -0.8727,-0.8599 -1.3604,-2.0919 -1.3604 -2.0919c -0.4877,-1.2320 -0.4877,-2.8234 -0.4877 -2.8234ZM 394.5329,13.8039 ZM 402.7464,12.4949 c 0.0000,-1.1037 -0.4877,-1.7967 -0.4877 -1.7967c -0.4877,-0.6930 -1.6427,-0.6930 -1.6427 -0.6930c -0.8984,-0.0000 -1.5785,0.6032 -1.5785 0.6032c -0.6802,0.6032 -0.8855,1.8866 -0.8855 1.8866h 4.5945 ZM 406.9045,20.1694 ZM 408.5729,7.4384 h 3.0801 l 0.2567,2.2331 h 0.1027 c 0.6930,-1.3090 1.6684,-1.9251 1.6684 -1.9251c 0.9754,-0.6160 1.9507,-0.6160 1.9507 -0.6160c 0.5390,0.0000 0.8855,0.0642 0.8855 0.0642c 0.3465,0.0642 0.6289,0.1925 0.6289 0.1925l -0.6160,3.2598 c -0.3593,-0.1027 -0.6674,-0.1540 -0.6674 -0.1540c -0.3080,-0.0513 -0.7187,-0.0513 -0.7187 -0.0513c -0.7187,-0.0000 -1.5015,0.5133 -1.5015 0.5133c -0.7829,0.5133 -1.2962,1.8224 -1.2962 1.8224v 7.3922 h -3.7731 v -12.7310 ZM 422.4589,20.1694 ZM 426.0010,5.5647 c -0.9497,-0.0000 -1.5657,-0.5518 -1.5657 -0.5518c -0.6160,-0.5518 -0.6160,-1.4245 -0.6160 -1.4245c 0.0000,-0.8727 0.6160,-1.4117 0.6160 -1.4117c 0.6160,-0.5390 1.5657,-0.5390 1.5657 -0.5390c 0.9754,0.0000 1.5785,0.5390 1.5785 0.5390c 0.6032,0.5390 0.6032,1.4117 0.6032 1.4117c 0.0000,0.8727 -0.6032,1.4245 -0.6032 1.4245c -0.6032,0.5518 -1.5785,0.5518 -1.5785 0.5518ZM 426.0010,5.5647 ZM 424.1273,7.4384 h 3.7731 v 12.7310 h -3.7731 v -12.7310 ZM 429.5431,20.1694 ZM 431.7762,16.3450 c 0.8727,0.6674 1.6684,1.0010 1.6684 1.0010c 0.7957,0.3337 1.6170,0.3337 1.6170 0.3337c 0.8470,0.0000 1.2320,-0.2823 1.2320 -0.2823c 0.3850,-0.2823 0.3850,-0.7957 0.3850 -0.7957c 0.0000,-0.3080 -0.2182,-0.5518 -0.2182 -0.5518c -0.2182,-0.2438 -0.5903,-0.4492 -0.5903 -0.4492c -0.3722,-0.2053 -0.8342,-0.3722 -0.8342 -0.3722c -0.4620,-0.1668 -0.9497,-0.3722 -0.9497 -0.3722c -0.5903,-0.2310 -1.1807,-0.5390 -1.1807 -0.5390c -0.5903,-0.3080 -1.0780,-0.7572 -1.0780 -0.7572c -0.4877,-0.4492 -0.7957,-1.0524 -0.7957 -1.0524c -0.3080,-0.6032 -0.3080,-1.3989 -0.3080 -1.3989c 0.0000,-0.8727 0.3465,-1.6170 0.3465 -1.6170c 0.3465,-0.7444 0.9882,-1.2577 0.9882 -1.2577c 0.6417,-0.5133 1.5400,-0.8085 1.5400 -0.8085c 0.8984,-0.2952 2.0021,-0.2952 2.0021 -0.2952c 1.4630,0.0000 2.5667,0.5005 2.5667 0.5005c 1.1037,0.5005 1.9251,1.1165 1.9251 1.1165l -1.6940,2.2587 c -0.6930,-0.5133 -1.3604,-0.7957 -1.3604 -0.7957c -0.6674,-0.2823 -1.3347,-0.2823 -1.3347 -0.2823c -1.4374,-0.0000 -1.4374,1.0010 -1.4374 1.0010c 0.0000,0.3080 0.2053,0.5262 0.2053 0.5262c 0.2053,0.2182 0.5518,0.3978 0.5518 0.3978c 0.3465,0.1797 0.7957,0.3465 0.7957 0.3465c 0.4492,0.1668 0.9369,0.3465 0.9369 0.3465c 0.6160,0.2310 1.2192,0.5262 1.2192 0.5262c 0.6032,0.2952 1.1037,0.7315 1.1037 0.7315c 0.5005,0.4363 0.8085,1.0652 0.8085 1.0652c 0.3080,0.6289 0.3080,1.5015 0.3080 1.5015c 0.0000,0.8727 -0.3337,1.6170 -0.3337 1.6170c -0.3337,0.7444 -1.0010,1.2962 -1.0010 1.2962c -0.6674,0.5518 -1.6427,0.8727 -1.6427 0.8727c -0.9754,0.3208 -2.2587,0.3208 -2.2587 0.3208c -1.2577,-0.0000 -2.5796,-0.4877 -2.5796 -0.4877c -1.3219,-0.4877 -2.2972,-1.2834 -2.2972 -1.2834ZM 446.2526,20.1694 ZM 448.2290,3.4343 h 5.7238 c 1.3090,0.0000 2.4256,0.1925 2.4256 0.1925c 1.1165,0.1925 1.9507,0.6802 1.9507 0.6802c 0.8342,0.4877 1.3090,1.2834 1.3090 1.2834c 0.4748,0.7957 0.4748,2.0021 0.4748 2.0021c 0.0000,0.5647 -0.1668,1.1294 -0.1668 1.1294c -0.1668,0.5647 -0.5005,1.0524 -0.5005 1.0524c -0.3337,0.4877 -0.8727,0.8727 -0.8727 0.8727c -0.5390,0.3850 -1.2577,0.5647 -1.2577 0.5647v 0.1027 c 1.7967,0.3337 2.7079,1.2834 2.7079 1.2834c 0.9112,0.9497 0.9112,2.6437 0.9112 2.6437c 0.0000,1.2834 -0.5005,2.2074 -0.5005 2.2074c -0.5005,0.9240 -1.3860,1.5272 -1.3860 1.5272c -0.8855,0.6032 -2.0662,0.8984 -2.0662 0.8984c -1.1807,0.2952 -2.5411,0.2952 -2.5411 0.2952h -6.2115 v -16.7351 ZM 448.2290,3.4343 ZM 453.7731,10.1848 c 1.3860,0.0000 2.0149,-0.5518 2.0149 -0.5518c 0.6289,-0.5518 0.6289,-1.5015 0.6289 -1.5015c 0.0000,-0.9497 -0.6417,-1.3604 -0.6417 -1.3604c -0.6417,-0.4107 -1.9764,-0.4107 -1.9764 -0.4107h -1.7967 v 3.8244 h 1.7710 ZM 453.7731,10.1848 ZM 454.1324,17.2433 c 3.1057,0.0000 3.1057,-2.2844 3.1057 -2.2844c 0.0000,-1.1037 -0.7700,-1.6042 -0.7700 -1.6042c -0.7700,-0.5005 -2.3357,-0.5005 -2.3357 -0.5005h -2.1304 v 4.3891 h 2.1304 ZM 461.7813,20.1694 ZM 462.7053,13.8039 c 0.0000,-1.5400 0.5133,-2.7849 0.5133 -2.7849c 0.5133,-1.2449 1.3475,-2.1047 1.3475 -2.1047c 0.8342,-0.8599 1.9122,-1.3219 1.9122 -1.3219c 1.0780,-0.4620 2.2331,-0.4620 2.2331 -0.4620c 1.3604,0.0000 2.3742,0.4620 2.3742 0.4620c 1.0139,0.4620 1.6940,1.2834 1.6940 1.2834c 0.6802,0.8214 1.0139,1.9379 1.0139 1.9379c 0.3337,1.1165 0.3337,2.4256 0.3337 2.4256c 0.0000,0.5133 -0.0513,0.9369 -0.0513 0.9369c -0.0513,0.4235 -0.1027,0.6545 -0.1027 0.6545h -7.6232 c 0.2567,1.4630 1.1422,2.1176 1.1422 2.1176c 0.8855,0.6545 2.1689,0.6545 2.1689 0.6545c 1.3604,0.0000 2.7464,-0.8470 2.7464 -0.8470l 1.2577,2.2844 c -0.9754,0.6674 -2.1689,1.0524 -2.1689 1.0524c -1.1935,0.3850 -2.3486,0.3850 -2.3486 0.3850c -1.3604,-0.0000 -2.5411,-0.4492 -2.5411 -0.4492c -1.1807,-0.4492 -2.0534,-1.3090 -2.0534 -1.3090c -0.8727,-0.8599 -1.3604,-2.0919 -1.3604 -2.0919c -0.4877,-1.2320 -0.4877,-2.8234 -0.4877 -2.8234ZM 462.7053,13.8039 ZM 470.9189,12.4949 c 0.0000,-1.1037 -0.4877,-1.7967 -0.4877 -1.7967c -0.4877,-0.6930 -1.6427,-0.6930 -1.6427 -0.6930c -0.8984,-0.0000 -1.5785,0.6032 -1.5785 0.6032c -0.6802,0.6032 -0.8855,1.8866 -0.8855 1.8866h 4.5945 ZM 474.6150,20.1694 ZM 476.7967,10.3901 h -1.7454 v -2.7977 l 1.9507,-0.1540 l 0.4363,-3.3881 h 3.1314 v 3.3881 h 3.0544 v 2.9517 h -3.0544 v 5.1078 c 0.0000,1.0780 0.4492,1.5529 0.4492 1.5529c 0.4492,0.4748 1.1935,0.4748 1.1935 0.4748c 0.3080,0.0000 0.6289,-0.0770 0.6289 -0.0770c 0.3208,-0.0770 0.5775,-0.1797 0.5775 -0.1797l 0.5903,2.7464 c -0.5133,0.1540 -1.2064,0.3080 -1.2064 0.3080c -0.6930,0.1540 -1.6170,0.1540 -1.6170 0.1540c -1.1807,-0.0000 -2.0149,-0.3593 -2.0149 -0.3593c -0.8342,-0.3593 -1.3604,-1.0010 -1.3604 -1.0010c -0.5262,-0.6417 -0.7700,-1.5529 -0.7700 -1.5529c -0.2438,-0.9112 -0.2438,-2.0149 -0.2438 -2.0149v -5.1591 ZM 484.4456,20.1694 ZM 486.6273,10.3901 h -1.7454 v -2.7977 l 1.9507,-0.1540 l 0.4363,-3.3881 h 3.1314 v 3.3881 h 3.0544 v 2.9517 h -3.0544 v 5.1078 c 0.0000,1.0780 0.4492,1.5529 0.4492 1.5529c 0.4492,0.4748 1.1935,0.4748 1.1935 0.4748c 0.3080,0.0000 0.6289,-0.0770 0.6289 -0.0770c 0.3208,-0.0770 0.5775,-0.1797 0.5775 -0.1797l 0.5903,2.7464 c -0.5133,0.1540 -1.2064,0.3080 -1.2064 0.3080c -0.6930,0.1540 -1.6170,0.1540 -1.6170 0.1540c -1.1807,-0.0000 -2.0149,-0.3593 -2.0149 -0.3593c -0.8342,-0.3593 -1.3604,-1.0010 -1.3604 -1.0010c -0.5262,-0.6417 -0.7700,-1.5529 -0.7700 -1.5529c -0.2438,-0.9112 -0.2438,-2.0149 -0.2438 -2.0149v -5.1591 ZM 494.0195,20.1694 ZM 494.9435,13.8039 c 0.0000,-1.5400 0.5133,-2.7849 0.5133 -2.7849c 0.5133,-1.2449 1.3475,-2.1047 1.3475 -2.1047c 0.8342,-0.8599 1.9122,-1.3219 1.9122 -1.3219c 1.0780,-0.4620 2.2331,-0.4620 2.2331 -0.4620c 1.3604,0.0000 2.3742,0.4620 2.3742 0.4620c 1.0139,0.4620 1.6940,1.2834 1.6940 1.2834c 0.6802,0.8214 1.0139,1.9379 1.0139 1.9379c 0.3337,1.1165 0.3337,2.4256 0.3337 2.4256c 0.0000,0.5133 -0.0513,0.9369 -0.0513 0.9369c -0.0513,0.4235 -0.1027,0.6545 -0.1027 0.6545h -7.6232 c 0.2567,1.4630 1.1422,2.1176 1.1422 2.1176c 0.8855,0.6545 2.1689,0.6545 2.1689 0.6545c 1.3604,0.0000 2.7464,-0.8470 2.7464 -0.8470l 1.2577,2.2844 c -0.9754,0.6674 -2.1689,1.0524 -2.1689 1.0524c -1.1935,0.3850 -2.3486,0.3850 -2.3486 0.3850c -1.3604,-0.0000 -2.5411,-0.4492 -2.5411 -0.4492c -1.1807,-0.4492 -2.0534,-1.3090 -2.0534 -1.3090c -0.8727,-0.8599 -1.3604,-2.0919 -1.3604 -2.0919c -0.4877,-1.2320 -0.4877,-2.8234 -0.4877 -2.8234ZM 494.9435,13.8039 ZM 503.1571,12.4949 c 0.0000,-1.1037 -0.4877,-1.7967 -0.4877 -1.7967c -0.4877,-0.6930 -1.6427,-0.6930 -1.6427 -0.6930c -0.8984,-0.0000 -1.5785,0.6032 -1.5785 0.6032c -0.6802,0.6032 -0.8855,1.8866 -0.8855 1.8866h 4.5945 ZM 507.3152,20.1694 ZM 508.9836,7.4384 h 3.0801 l 0.2567,2.2331 h 0.1027 c 0.6930,-1.3090 1.6684,-1.9251 1.6684 -1.9251c 0.9754,-0.6160 1.9507,-0.6160 1.9507 -0.6160c 0.5390,0.0000 0.8855,0.0642 0.8855 0.0642c 0.3465,0.0642 0.6289,0.1925 0.6289 0.1925l -0.6160,3.2598 c -0.3593,-0.1027 -0.6674,-0.1540 -0.6674 -0.1540c -0.3080,-0.0513 -0.7187,-0.0513 -0.7187 -0.0513c -0.7187,-0.0000 -1.5015,0.5133 -1.5015 0.5133c -0.7829,0.5133 -1.2962,1.8224 -1.2962 1.8224v 7.3922 h -3.7731 v -12.7310 ZM 517.5308,20.1694 ZM 518.7628,23.7885 c 1.4374,-2.5154 2.0791,-5.2618 2.0791 -5.2618c 0.6417,-2.7464 0.6417,-5.4928 0.6417 -5.4928c 0.0000,-2.7464 -0.6417,-5.4928 -0.6417 -5.4928c -0.6417,-2.7464 -2.0791,-5.2618 -2.0791 -5.2618l 2.3614,-0.9754 c 1.6170,2.6437 2.5026,5.4928 2.5026 5.4928c 0.8855,2.8491 0.8855,6.2372 0.8855 6.2372c 0.0000,3.3881 -0.8855,6.2372 -0.8855 6.2372c -0.8855,2.8491 -2.5026,5.4928 -2.5026 5.4928l -2.3614,-0.9754 h 0.0000 ZM 526.3604,20.1694 ZM 531.5965,24.7639 c -1.6170,-2.6437 -2.5026,-5.4928 -2.5026 -5.4928c -0.8855,-2.8491 -0.8855,-6.2372 -0.8855 -6.2372c 0.0000,-3.3881 0.8855,-6.2372 0.8855 -6.2372c 0.8855,-2.8491 2.5026,-5.4928 2.5026 -5.4928l 2.3614,0.9754 c -1.4117,2.5154 -2.0534,5.2618 -2.0534 5.2618c -0.6417,2.7464 -0.6417,5.4928 -0.6417 5.4928c 0.0000,2.7464 0.6417,5.4928 0.6417 5.4928c 0.6417,2.7464 2.0534,5.2618 2.0534 5.2618l -2.3614,0.9754 h 0.0000 ZM 535.1899,20.1694 ZM 536.8583,7.4384 h 3.0801 l 0.2567,1.6427 h 0.1027 c 0.7957,-0.7957 1.6940,-1.3732 1.6940 -1.3732c 0.8984,-0.5775 2.1561,-0.5775 2.1561 -0.5775c 1.3604,0.0000 2.1946,0.5518 2.1946 0.5518c 0.8342,0.5518 1.3219,1.5785 1.3219 1.5785c 0.8470,-0.8727 1.7839,-1.5015 1.7839 -1.5015c 0.9369,-0.6289 2.2202,-0.6289 2.2202 -0.6289c 2.0534,0.0000 3.0159,1.3732 3.0159 1.3732c 0.9625,1.3732 0.9625,3.7603 0.9625 3.7603v 7.9055 h -3.7731 v -7.4179 c 0.0000,-1.3860 -0.3722,-1.8994 -0.3722 -1.8994c -0.3722,-0.5133 -1.1935,-0.5133 -1.1935 -0.5133c -0.9497,-0.0000 -2.1817,1.2320 -2.1817 1.2320v 8.5986 h -3.7731 v -7.4179 c 0.0000,-1.3860 -0.3722,-1.8994 -0.3722 -1.8994c -0.3722,-0.5133 -1.1935,-0.5133 -1.1935 -0.5133c -0.9754,-0.0000 -2.1561,1.2320 -2.1561 1.2320v 8.5986 h -3.7731 v -12.7310 ZM 557.1869,20.1694 ZM 558.3932,16.6273 c 0.0000,-2.0021 1.6940,-3.1314 1.6940 -3.1314c 1.6940,-1.1294 5.4671,-1.5144 5.4671 -1.5144c -0.0513,-0.8470 -0.5133,-1.3475 -0.5133 -1.3475c -0.4620,-0.5005 -1.4887,-0.5005 -1.4887 -0.5005c -0.8214,-0.0000 -1.6427,0.3080 -1.6427 0.3080c -0.8214,0.3080 -1.7454,0.8470 -1.7454 0.8470l -1.3347,-2.4897 c 1.2320,-0.7444 2.5796,-1.2064 2.5796 -1.2064c 1.3475,-0.4620 2.8619,-0.4620 2.8619 -0.4620c 2.4641,0.0000 3.7603,1.3989 3.7603 1.3989c 1.2962,1.3989 1.2962,4.3506 1.2962 4.3506v 7.2895 h -3.0801 l -0.2823,-1.3090 h -0.0770 c -0.8214,0.7187 -1.7325,1.1679 -1.7325 1.1679c -0.9112,0.4492 -1.9892,0.4492 -1.9892 0.4492c -0.8727,-0.0000 -1.5657,-0.2952 -1.5657 -0.2952c -0.6930,-0.2952 -1.1807,-0.8214 -1.1807 -0.8214c -0.4877,-0.5262 -0.7572,-1.2192 -0.7572 -1.2192c -0.2695,-0.6930 -0.2695,-1.5144 -0.2695 -1.5144ZM 558.3932,16.6273 ZM 561.9867,16.3450 c 0.0000,0.6160 0.3978,0.9112 0.3978 0.9112c 0.3978,0.2952 1.0652,0.2952 1.0652 0.2952c 0.6674,0.0000 1.1294,-0.2823 1.1294 -0.2823c 0.4620,-0.2823 0.9754,-0.7957 0.9754 -0.7957v -2.2331 c -2.0277,0.2823 -2.7977,0.8214 -2.7977 0.8214c -0.7700,0.5390 -0.7700,1.2834 -0.7700 1.2834ZM 570.8932,20.1694 ZM 575.1540,13.5472 l -3.6704,-6.1088 h 4.0554 l 1.1294,2.0534 c 0.2567,0.5390 0.5262,1.0909 0.5262 1.0909c 0.2695,0.5518 0.5518,1.0909 0.5518 1.0909h 0.1027 c 0.2053,-0.5390 0.4363,-1.0909 0.4363 -1.0909c 0.2310,-0.5518 0.4363,-1.0909 0.4363 -1.0909l 0.8727,-2.0534 h 3.9014 l -3.6961,6.5452 l 3.9271,6.1858 h -4.0554 l -1.2320,-2.1047 c -0.3080,-0.5390 -0.6032,-1.1037 -0.6032 -1.1037c -0.2952,-0.5647 -0.6032,-1.1037 -0.6032 -1.1037h -0.1027 c -0.2310,0.5390 -0.4877,1.0909 -0.4877 1.0909c -0.2567,0.5518 -0.4877,1.1165 -0.4877 1.1165l -1.0010,2.1047 h -3.9014 ZM 584.0862,20.1694 ZM 585.7546,7.4384 h 3.0801 l 0.2567,2.2331 h 0.1027 c 0.6930,-1.3090 1.6684,-1.9251 1.6684 -1.9251c 0.9754,-0.6160 1.9507,-0.6160 1.9507 -0.6160c 0.5390,0.0000 0.8855,0.0642 0.8855 0.0642c 0.3465,0.0642 0.6289,0.1925 0.6289 0.1925l -0.6160,3.2598 c -0.3593,-0.1027 -0.6674,-0.1540 -0.6674 -0.1540c -0.3080,-0.0513 -0.7187,-0.0513 -0.7187 -0.0513c -0.7187,-0.0000 -1.5015,0.5133 -1.5015 0.5133c -0.7829,0.5133 -1.2962,1.8224 -1.2962 1.8224v 7.3922 h -3.7731 v -12.7310 ZM 594.0452,20.1694 ZM 596.2782,16.3450 c 0.8727,0.6674 1.6684,1.0010 1.6684 1.0010c 0.7957,0.3337 1.6170,0.3337 1.6170 0.3337c 0.8470,0.0000 1.2320,-0.2823 1.2320 -0.2823c 0.3850,-0.2823 0.3850,-0.7957 0.3850 -0.7957c 0.0000,-0.3080 -0.2182,-0.5518 -0.2182 -0.5518c -0.2182,-0.2438 -0.5903,-0.4492 -0.5903 -0.4492c -0.3722,-0.2053 -0.8342,-0.3722 -0.8342 -0.3722c -0.4620,-0.1668 -0.9497,-0.3722 -0.9497 -0.3722c -0.5903,-0.2310 -1.1807,-0.5390 -1.1807 -0.5390c -0.5903,-0.3080 -1.0780,-0.7572 -1.0780 -0.7572c -0.4877,-0.4492 -0.7957,-1.0524 -0.7957 -1.0524c -0.3080,-0.6032 -0.3080,-1.3989 -0.3080 -1.3989c 0.0000,-0.8727 0.3465,-1.6170 0.3465 -1.6170c 0.3465,-0.7444 0.9882,-1.2577 0.9882 -1.2577c 0.6417,-0.5133 1.5400,-0.8085 1.5400 -0.8085c 0.8984,-0.2952 2.0021,-0.2952 2.0021 -0.2952c 1.4630,0.0000 2.5667,0.5005 2.5667 0.5005c 1.1037,0.5005 1.9251,1.1165 1.9251 1.1165l -1.6940,2.2587 c -0.6930,-0.5133 -1.3604,-0.7957 -1.3604 -0.7957c -0.6674,-0.2823 -1.3347,-0.2823 -1.3347 -0.2823c -1.4374,-0.0000 -1.4374,1.0010 -1.4374 1.0010c 0.0000,0.3080 0.2053,0.5262 0.2053 0.5262c 0.2053,0.2182 0.5518,0.3978 0.5518 0.3978c 0.3465,0.1797 0.7957,0.3465 0.7957 0.3465c 0.4492,0.1668 0.9369,0.3465 0.9369 0.3465c 0.6160,0.2310 1.2192,0.5262 1.2192 0.5262c 0.6032,0.2952 1.1037,0.7315 1.1037 0.7315c 0.5005,0.4363 0.8085,1.0652 0.8085 1.0652c 0.3080,0.6289 0.3080,1.5015 0.3080 1.5015c 0.0000,0.8727 -0.3337,1.6170 -0.3337 1.6170c -0.3337,0.7444 -1.0010,1.2962 -1.0010 1.2962c -0.6674,0.5518 -1.6427,0.8727 -1.6427 0.8727c -0.9754,0.3208 -2.2587,0.3208 -2.2587 0.3208c -1.2577,-0.0000 -2.5796,-0.4877 -2.5796 -0.4877c -1.3219,-0.4877 -2.2972,-1.2834 -2.2972 -1.2834ZM 605.4158,20.1694 ZM 607.6489,16.3450 c 0.8727,0.6674 1.6684,1.0010 1.6684 1.0010c 0.7957,0.3337 1.6170,0.3337 1.6170 0.3337c 0.8470,0.0000 1.2320,-0.2823 1.2320 -0.2823c 0.3850,-0.2823 0.3850,-0.7957 0.3850 -0.7957c 0.0000,-0.3080 -0.2182,-0.5518 -0.2182 -0.5518c -0.2182,-0.2438 -0.5903,-0.4492 -0.5903 -0.4492c -0.3722,-0.2053 -0.8342,-0.3722 -0.8342 -0.3722c -0.4620,-0.1668 -0.9497,-0.3722 -0.9497 -0.3722c -0.5903,-0.2310 -1.1807,-0.5390 -1.1807 -0.5390c -0.5903,-0.3080 -1.0780,-0.7572 -1.0780 -0.7572c -0.4877,-0.4492 -0.7957,-1.0524 -0.7957 -1.0524c -0.3080,-0.6032 -0.3080,-1.3989 -0.3080 -1.3989c 0.0000,-0.8727 0.3465,-1.6170 0.3465 -1.6170c 0.3465,-0.7444 0.9882,-1.2577 0.9882 -1.2577c 0.6417,-0.5133 1.5400,-0.8085 1.5400 -0.8085c 0.8984,-0.2952 2.0021,-0.2952 2.0021 -0.2952c 1.4630,0.0000 2.5667,0.5005 2.5667 0.5005c 1.1037,0.5005 1.9251,1.1165 1.9251 1.1165l -1.6940,2.2587 c -0.6930,-0.5133 -1.3604,-0.7957 -1.3604 -0.7957c -0.6674,-0.2823 -1.3347,-0.2823 -1.3347 -0.2823c -1.4374,-0.0000 -1.4374,1.0010 -1.4374 1.0010c 0.0000,0.3080 0.2053,0.5262 0.2053 0.5262c 0.2053,0.2182 0.5518,0.3978 0.5518 0.3978c 0.3465,0.1797 0.7957,0.3465 0.7957 0.3465c 0.4492,0.1668 0.9369,0.3465 0.9369 0.3465c 0.6160,0.2310 1.2192,0.5262 1.2192 0.5262c 0.6032,0.2952 1.1037,0.7315 1.1037 0.7315c 0.5005,0.4363 0.8085,1.0652 0.8085 1.0652c 0.3080,0.6289 0.3080,1.5015 0.3080 1.5015c 0.0000,0.8727 -0.3337,1.6170 -0.3337 1.6170c -0.3337,0.7444 -1.0010,1.2962 -1.0010 1.2962c -0.6674,0.5518 -1.6427,0.8727 -1.6427 0.8727c -0.9754,0.3208 -2.2587,0.3208 -2.2587 0.3208c -1.2577,-0.0000 -2.5796,-0.4877 -2.5796 -0.4877c -1.3219,-0.4877 -2.2972,-1.2834 -2.2972 -1.2834ZM 616.7864,20.1694 ZM 618.0185,23.7885 c 1.4374,-2.5154 2.0791,-5.2618 2.0791 -5.2618c 0.6417,-2.7464 0.6417,-5.4928 0.6417 -5.4928c 0.0000,-2.7464 -0.6417,-5.4928 -0.6417 -5.4928c -0.6417,-2.7464 -2.0791,-5.2618 -2.0791 -5.2618l 2.3614,-0.9754 c 1.6170,2.6437 2.5026,5.4928 2.5026 5.4928c 0.8855,2.8491 0.8855,6.2372 0.8855 6.2372c 0.0000,3.3881 -0.8855,6.2372 -0.8855 6.2372c -0.8855,2.8491 -2.5026,5.4928 -2.5026 5.4928l -2.3614,-0.9754 h 0.0000 Z"/></g><g stroke-linejoin="miter" stroke-opacity="1.0" fill-opacity="0.0" stroke="rgb(211,211,211)" stroke-width="0.9999999999999997" fill="rgb(0,0,0)" stroke-dashoffset="0.0" stroke-linecap="butt" stroke-miterlimit="10.0" stroke-dasharray="4.999999999999998,4.999999999999998"><path d="M 62.6975,540.0000 h 650.3529 "/></g><g stroke-linejoin="miter" stroke-opacity="1.0" fill-opacity="0.0" stroke="rgb(211,211,211)" stroke-width="0.9999999999999997" fill="rgb(0,0,0)" stroke-dashoffset="0.0" stroke-linecap="butt" stroke-miterlimit="10.0" stroke-dasharray="4.999999999999998,4.999999999999998"><path d="M 62.6975,416.7500 h 650.3529 "/></g><g stroke-linejoin="miter" stroke-opacity="1.0" fill-opacity="0.0" stroke="rgb(211,211,211)" stroke-width="0.9999999999999997" fill="rgb(0,0,0)" stroke-dashoffset="0.0" stroke-linecap="butt" stroke-miterlimit="10.0" stroke-dasharray="4.999999999999998,4.999999999999998"><path d="M 62.6975,293.5000 h 650.3529 "/></g><g stroke-linejoin="miter" stroke-opacity="1.0" fill-opacity="0.0" stroke="rgb(211,211,211)" stroke-width="0.9999999999999997" fill="rgb(0,0,0)" stroke-dashoffset="0.0" stroke-linecap="butt" stroke-miterlimit="10.0" stroke-dasharray="4.999999999999998,4.999999999999998"><path d="M 62.6975,170.2500 h 650.3529 "/></g><g stroke-linejoin="miter" stroke-opacity="1.0" fill-opacity="0.0" stroke="rgb(211,211,211)" stroke-width="0.9999999999999997" fill="rgb(0,0,0)" stroke-dashoffset="0.0" stroke-linecap="butt" stroke-miterlimit="10.0" stroke-dasharray="4.999999999999998,4.999999999999998"><path d="M 62.6975,47.0000 h 650.3529 "/></g><g stroke-linejoin="bevel" stroke-opacity="0.0" fill-opacity="1.0" stroke="rgb(0,0,0)" stroke-width="0.0" fill="rgb(0,0,255)" stroke-linecap="butt" stroke-miterlimit="10.0"><defs><clipPath id="myClip1"><path d="M 62.6975,47.0000 v 493.0000 h 650.3529 v -493.0000 Z"/></clipPath></defs><g clip-path="url(#myClip1)"><path d="M 77.6975,540.0000 v -490.5928 h 295.1765 v 490.5928 Z"/></g></g><g stroke-linejoin="miter" stroke-opacity="1.0" fill-opacity="0.0" stroke="rgb(0,0,0)" stroke-width="0.9999999999999997" fill="rgb(0,0,0)" stroke-linecap="butt" stroke-miterlimit="10.0"><defs><clipPath id="myClip2"><path d="M 62.6975,47.0000 v 493.0000 h 650.3529 v -493.0000 Z"/></clipPath></defs><g clip-path="url(#myClip2)"><path d="M 77.6975,540.0000 v -490.5928 h 295.1765 v 490.5928 Z"/></g></g><g stroke-linejoin="bevel" stroke-opacity="0.0" fill-opacity="1.0" stroke="rgb(0,0,0)" stroke-width="0.0" fill="rgb(0,0,255)" stroke-linecap="butt" stroke-miterlimit="10.0"><defs><clipPath id="myClip3"><path d="M 62.6975,47.0000 v 493.0000 h 650.3529 v -493.0000 Z"/></clipPath></defs><g clip-path="url(#myClip3)"><path d="M 402.8739,540.0000 v -430.4121 h 295.1765 v 430.4121 Z"/></g></g><g stroke-linejoin="miter" stroke-opacity="1.0" fill-opacity="0.0" stroke="rgb(0,0,0)" stroke-width="0.9999999999999997" fill="rgb(0,0,0)" stroke-linecap="butt" stroke-miterlimit="10.0"><defs><clipPath id="myClip4"><path d="M 62.6975,47.0000 v 493.0000 h 650.3529 v -493.0000 Z"/></clipPath></defs><g clip-path="url(#myClip4)"><path d="M 402.8739,540.0000 v -430.4121 h 295.1765 v 430.4121 Z"/></g></g><g stroke-linejoin="miter" stroke-opacity="1.0" fill-opacity="0.0" stroke="rgb(0,0,0)" stroke-width="0.9999999999999997" fill="rgb(0,0,0)" stroke-linecap="square" stroke-miterlimit="10.0"><path d="M 62.6975,540.0000 v -493.0000 "/></g><g stroke-linejoin="miter" stroke-opacity="1.0" fill-opacity="0.0" stroke="rgb(0,0,0)" stroke-width="0.9999999999999997" fill="rgb(0,0,0)" stroke-linecap="butt" stroke-miterlimit="10.0"><path d="M 62.6975,540.0000 h 2.0000 "/></g><g stroke-linejoin="miter" stroke-opacity="1.0" fill-opacity="0.0" stroke="rgb(0,0,0)" stroke-width="0.9999999999999997" fill="rgb(0,0,0)" stroke-linecap="butt" stroke-miterlimit="10.0"><path d="M 62.6975,527.6750 h 2.0000 "/></g><g stroke-linejoin="miter" stroke-opacity="1.0" fill-opacity="0.0" stroke="rgb(0,0,0)" stroke-width="0.9999999999999997" fill="rgb(0,0,0)" stroke-linecap="butt" stroke-miterlimit="10.0"><path d="M 62.6975,515.3500 h 2.0000 "/></g><g stroke-linejoin="miter" stroke-opacity="1.0" fill-opacity="0.0" stroke="rgb(0,0,0)" stroke-width="0.9999999999999997" fill="rgb(0,0,0)" stroke-linecap="butt" stroke-miterlimit="10.0"><path d="M 62.6975,503.0250 h 2.0000 "/></g><g stroke-linejoin="miter" stroke-opacity="1.0" fill-opacity="0.0" stroke="rgb(0,0,0)" stroke-width="0.9999999999999997" fill="rgb(0,0,0)" stroke-linecap="butt" stroke-miterlimit="10.0"><path d="M 62.6975,490.7000 h 2.0000 "/></g><g stroke-linejoin="miter" stroke-opacity="1.0" fill-opacity="0.0" stroke="rgb(0,0,0)" stroke-width="0.9999999999999997" fill="rgb(0,0,0)" stroke-linecap="butt" stroke-miterlimit="10.0"><path d="M 62.6975,478.3750 h 2.0000 "/></g><g stroke-linejoin="miter" stroke-opacity="1.0" fill-opacity="0.0" stroke="rgb(0,0,0)" stroke-width="0.9999999999999997" fill="rgb(0,0,0)" stroke-linecap="butt" stroke-miterlimit="10.0"><path d="M 62.6975,466.0500 h 2.0000 "/></g><g stroke-linejoin="miter" stroke-opacity="1.0" fill-opacity="0.0" stroke="rgb(0,0,0)" stroke-width="0.9999999999999997" fill="rgb(0,0,0)" stroke-linecap="butt" stroke-miterlimit="10.0"><path d="M 62.6975,453.7250 h 2.0000 "/></g><g stroke-linejoin="miter" stroke-opacity="1.0" fill-opacity="0.0" stroke="rgb(0,0,0)" stroke-width="0.9999999999999997" fill="rgb(0,0,0)" stroke-linecap="butt" stroke-miterlimit="10.0"><path d="M 62.6975,441.4000 h 2.0000 "/></g><g stroke-linejoin="miter" stroke-opacity="1.0" fill-opacity="0.0" stroke="rgb(0,0,0)" stroke-width="0.9999999999999997" fill="rgb(0,0,0)" stroke-linecap="butt" stroke-miterlimit="10.0"><path d="M 62.6975,429.0750 h 2.0000 "/></g><g stroke-linejoin="miter" stroke-opacity="1.0" fill-opacity="0.0" stroke="rgb(0,0,0)" stroke-width="0.9999999999999997" fill="rgb(0,0,0)" stroke-linecap="butt" stroke-miterlimit="10.0"><path d="M 62.6975,416.7500 h 2.0000 "/></g><g stroke-linejoin="miter" stroke-opacity="1.0" fill-opacity="0.0" stroke="rgb(0,0,0)" stroke-width="0.9999999999999997" fill="rgb(0,0,0)" stroke-linecap="butt" stroke-miterlimit="10.0"><path d="M 62.6975,404.4250 h 2.0000 "/></g><g stroke-linejoin="miter" stroke-opacity="1.0" fill-opacity="0.0" stroke="rgb(0,0,0)" stroke-width="0.9999999999999997" fill="rgb(0,0,0)" stroke-linecap="butt" stroke-miterlimit="10.0"><path d="M 62.6975,392.1000 h 2.0000 "/></g><g stroke-linejoin="miter" stroke-opacity="1.0" fill-opacity="0.0" stroke="rgb(0,0,0)" stroke-width="0.9999999999999997" fill="rgb(0,0,0)" stroke-linecap="butt" stroke-miterlimit="10.0"><path d="M 62.6975,379.7750 h 2.0000 "/></g><g stroke-linejoin="miter" stroke-opacity="1.0" fill-opacity="0.0" stroke="rgb(0,0,0)" stroke-width="0.9999999999999997" fill="rgb(0,0,0)" stroke-linecap="butt" stroke-miterlimit="10.0"><path d="M 62.6975,367.4500 h 2.0000 "/></g><g stroke-linejoin="miter" stroke-opacity="1.0" fill-opacity="0.0" stroke="rgb(0,0,0)" stroke-width="0.9999999999999997" fill="rgb(0,0,0)" stroke-linecap="butt" stroke-miterlimit="10.0"><path d="M 62.6975,355.1250 h 2.0000 "/></g><g stroke-linejoin="miter" stroke-opacity="1.0" fill-opacity="0.0" stroke="rgb(0,0,0)" stroke-width="0.9999999999999997" fill="rgb(0,0,0)" stroke-linecap="butt" stroke-miterlimit="10.0"><path d="M 62.6975,342.8000 h 2.0000 "/></g><g stroke-linejoin="miter" stroke-opacity="1.0" fill-opacity="0.0" stroke="rgb(0,0,0)" stroke-width="0.9999999999999997" fill="rgb(0,0,0)" stroke-linecap="butt" stroke-miterlimit="10.0"><path d="M 62.6975,330.4750 h 2.0000 "/></g><g stroke-linejoin="miter" stroke-opacity="1.0" fill-opacity="0.0" stroke="rgb(0,0,0)" stroke-width="0.9999999999999997" fill="rgb(0,0,0)" stroke-linecap="butt" stroke-miterlimit="10.0"><path d="M 62.6975,318.1500 h 2.0000 "/></g><g stroke-linejoin="miter" stroke-opacity="1.0" fill-opacity="0.0" stroke="rgb(0,0,0)" stroke-width="0.9999999999999997" fill="rgb(0,0,0)" stroke-linecap="butt" stroke-miterlimit="10.0"><path d="M 62.6975,305.8250 h 2.0000 "/></g><g stroke-linejoin="miter" stroke-opacity="1.0" fill-opacity="0.0" stroke="rgb(0,0,0)" stroke-width="0.9999999999999997" fill="rgb(0,0,0)" stroke-linecap="butt" stroke-miterlimit="10.0"><path d="M 62.6975,293.5000 h 2.0000 "/></g><g stroke-linejoin="miter" stroke-opacity="1.0" fill-opacity="0.0" stroke="rgb(0,0,0)" stroke-width="0.9999999999999997" fill="rgb(0,0,0)" stroke-linecap="butt" stroke-miterlimit="10.0"><path d="M 62.6975,281.1750 h 2.0000 "/></g><g stroke-linejoin="miter" stroke-opacity="1.0" fill-opacity="0.0" stroke="rgb(0,0,0)" stroke-width="0.9999999999999997" fill="rgb(0,0,0)" stroke-linecap="butt" stroke-miterlimit="10.0"><path d="M 62.6975,268.8500 h 2.0000 "/></g><g stroke-linejoin="miter" stroke-opacity="1.0" fill-opacity="0.0" stroke="rgb(0,0,0)" stroke-width="0.9999999999999997" fill="rgb(0,0,0)" stroke-linecap="butt" stroke-miterlimit="10.0"><path d="M 62.6975,256.5250 h 2.0000 "/></g><g stroke-linejoin="miter" stroke-opacity="1.0" fill-opacity="0.0" stroke="rgb(0,0,0)" stroke-width="0.9999999999999997" fill="rgb(0,0,0)" stroke-linecap="butt" stroke-miterlimit="10.0"><path d="M 62.6975,244.2000 h 2.0000 "/></g><g stroke-linejoin="miter" stroke-opacity="1.0" fill-opacity="0.0" stroke="rgb(0,0,0)" stroke-width="0.9999999999999997" fill="rgb(0,0,0)" stroke-linecap="butt" stroke-miterlimit="10.0"><path d="M 62.6975,231.8750 h 2.0000 "/></g><g stroke-linejoin="miter" stroke-opacity="1.0" fill-opacity="0.0" stroke="rgb(0,0,0)" stroke-width="0.9999999999999997" fill="rgb(0,0,0)" stroke-linecap="butt" stroke-miterlimit="10.0"><path d="M 62.6975,219.5500 h 2.0000 "/></g><g stroke-linejoin="miter" stroke-opacity="1.0" fill-opacity="0.0" stroke="rgb(0,0,0)" stroke-width="0.9999999999999997" fill="rgb(0,0,0)" stroke-linecap="butt" stroke-miterlimit="10.0"><path d="M 62.6975,207.2250 h 2.0000 "/></g><g stroke-linejoin="miter" stroke-opacity="1.0" fill-opacity="0.0" stroke="rgb(0,0,0)" stroke-width="0.9999999999999997" fill="rgb(0,0,0)" stroke-linecap="butt" stroke-miterlimit="10.0"><path d="M 62.6975,194.9000 h 2.0000 "/></g><g stroke-linejoin="miter" stroke-opacity="1.0" fill-opacity="0.0" stroke="rgb(0,0,0)" stroke-width="0.9999999999999997" fill="rgb(0,0,0)" stroke-linecap="butt" stroke-miterlimit="10.0"><path d="M 62.6975,182.5750 h 2.0000 "/></g><g stroke-linejoin="miter" stroke-opacity="1.0" fill-opacity="0.0" stroke="rgb(0,0,0)" stroke-width="0.9999999999999997" fill="rgb(0,0,0)" stroke-linecap="butt" stroke-miterlimit="10.0"><path d="M 62.6975,170.2500 h 2.0000 "/></g><g stroke-linejoin="miter" stroke-opacity="1.0" fill-opacity="0.0" stroke="rgb(0,0,0)" stroke-width="0.9999999999999997" fill="rgb(0,0,0)" stroke-linecap="butt" stroke-miterlimit="10.0"><path d="M 62.6975,157.9250 h 2.0000 "/></g><g stroke-linejoin="miter" stroke-opacity="1.0" fill-opacity="0.0" stroke="rgb(0,0,0)" stroke-width="0.9999999999999997" fill="rgb(0,0,0)" stroke-linecap="butt" stroke-miterlimit="10.0"><path d="M 62.6975,145.6000 h 2.0000 "/></g><g stroke-linejoin="miter" stroke-opacity="1.0" fill-opacity="0.0" stroke="rgb(0,0,0)" stroke-width="0.9999999999999997" fill="rgb(0,0,0)" stroke-linecap="butt" stroke-miterlimit="10.0"><path d="M 62.6975,133.2750 h 2.0000 "/></g><g stroke-linejoin="miter" stroke-opacity="1.0" fill-opacity="0.0" stroke="rgb(0,0,0)" stroke-width="0.9999999999999997" fill="rgb(0,0,0)" stroke-linecap="butt" stroke-miterlimit="10.0"><path d="M 62.6975,120.9500 h 2.0000 "/></g><g stroke-linejoin="miter" stroke-opacity="1.0" fill-opacity="0.0" stroke="rgb(0,0,0)" stroke-width="0.9999999999999997" fill="rgb(0,0,0)" stroke-linecap="butt" stroke-miterlimit="10.0"><path d="M 62.6975,108.6250 h 2.0000 "/></g><g stroke-linejoin="miter" stroke-opacity="1.0" fill-opacity="0.0" stroke="rgb(0,0,0)" stroke-width="0.9999999999999997" fill="rgb(0,0,0)" stroke-linecap="butt" stroke-miterlimit="10.0"><path d="M 62.6975,96.3000 h 2.0000 "/></g><g stroke-linejoin="miter" stroke-opacity="1.0" fill-opacity="0.0" stroke="rgb(0,0,0)" stroke-width="0.9999999999999997" fill="rgb(0,0,0)" stroke-linecap="butt" stroke-miterlimit="10.0"><path d="M 62.6975,83.9750 h 2.0000 "/></g><g stroke-linejoin="miter" stroke-opacity="1.0" fill-opacity="0.0" stroke="rgb(0,0,0)" stroke-width="0.9999999999999997" fill="rgb(0,0,0)" stroke-linecap="butt" stroke-miterlimit="10.0"><path d="M 62.6975,71.6500 h 2.0000 "/></g><g stroke-linejoin="miter" stroke-opacity="1.0" fill-opacity="0.0" stroke="rgb(0,0,0)" stroke-width="0.9999999999999997" fill="rgb(0,0,0)" stroke-linecap="butt" stroke-miterlimit="10.0"><path d="M 62.6975,59.3250 h 2.0000 "/></g><g stroke-linejoin="miter" stroke-opacity="1.0" fill-opacity="0.0" stroke="rgb(0,0,0)" stroke-width="0.9999999999999997" fill="rgb(0,0,0)" stroke-linecap="butt" stroke-miterlimit="10.0"><path d="M 62.6975,47.0000 h 2.0000 "/></g><g stroke-linejoin="miter" stroke-opacity="1.0" fill-opacity="0.0" stroke="rgb(0,0,0)" stroke-width="0.9999999999999997" fill="rgb(0,0,0)" stroke-linecap="butt" stroke-miterlimit="10.0"><path d="M 62.6975,540.0000 h 5.0000 "/></g><g stroke-linejoin="miter" stroke-opacity="1.0" fill-opacity="0.0" stroke="rgb(0,0,0)" stroke-width="0.9999999999999997" fill="rgb(0,0,0)" stroke-linecap="butt" stroke-miterlimit="10.0"><path d="M 62.6975,416.7500 h 5.0000 "/></g><g stroke-linejoin="miter" stroke-opacity="1.0" fill-opacity="0.0" stroke="rgb(0,0,0)" stroke-width="0.9999999999999997" fill="rgb(0,0,0)" stroke-linecap="butt" stroke-miterlimit="10.0"><path d="M 62.6975,293.5000 h 5.0000 "/></g><g stroke-linejoin="miter" stroke-opacity="1.0" fill-opacity="0.0" stroke="rgb(0,0,0)" stroke-width="0.9999999999999997" fill="rgb(0,0,0)" stroke-linecap="butt" stroke-miterlimit="10.0"><path d="M 62.6975,170.2500 h 5.0000 "/></g><g stroke-linejoin="miter" stroke-opacity="1.0" fill-opacity="0.0" stroke="rgb(0,0,0)" stroke-width="0.9999999999999997" fill="rgb(0,0,0)" stroke-linecap="butt" stroke-miterlimit="10.0"><path d="M 62.6975,47.0000 h 5.0000 "/></g><g stroke-linejoin="bevel" stroke-opacity="0.0" fill-opacity="1.0" stroke="rgb(0,0,0)" stroke-width="0.0" fill="rgb(0,0,0)" stroke-linecap="butt" stroke-miterlimit="10.0"><path d="M 20.6975,544.8235 ZM 24.3592,545.0000 c -1.4265,-0.0000 -2.2206,-1.2647 -2.2206 -1.2647c -0.7941,-1.2647 -0.7941,-3.6324 -0.7941 -3.6324c 0.0000,-2.3676 0.7941,-3.6029 0.7941 -3.6029c 0.7941,-1.2353 2.2206,-1.2353 2.2206 -1.2353c 1.4118,0.0000 2.2059,1.2353 2.2059 1.2353c 0.7941,1.2353 0.7941,3.6029 0.7941 3.6029c 0.0000,2.3676 -0.7941,3.6324 -0.7941 3.6324c -0.7941,1.2647 -2.2059,1.2647 -2.2059 1.2647ZM 24.3592,545.0000 ZM 24.3592,544.0294 c 0.4118,0.0000 0.7426,-0.2279 0.7426 -0.2279c 0.3309,-0.2279 0.5735,-0.7059 0.5735 -0.7059c 0.2426,-0.4779 0.3750,-1.2206 0.3750 -1.2206c 0.1324,-0.7426 0.1324,-1.7721 0.1324 -1.7721c 0.0000,-1.0294 -0.1324,-1.7647 -0.1324 -1.7647c -0.1324,-0.7353 -0.3750,-1.1985 -0.3750 -1.1985c -0.2426,-0.4632 -0.5735,-0.6838 -0.5735 -0.6838c -0.3309,-0.2206 -0.7426,-0.2206 -0.7426 -0.2206c -0.4118,-0.0000 -0.7500,0.2206 -0.7500 0.2206c -0.3382,0.2206 -0.5809,0.6838 -0.5809 0.6838c -0.2426,0.4632 -0.3750,1.1985 -0.3750 1.1985c -0.1324,0.7353 -0.1324,1.7647 -0.1324 1.7647c 0.0000,2.0588 0.5074,2.9926 0.5074 2.9926c 0.5074,0.9338 1.3309,0.9338 1.3309 0.9338ZM 30.9769,544.8235 ZM 32.3004,535.1765 h 1.4412 l 1.8676,5.1765 l 0.7059,1.9706 h 0.0588 l 0.6765,-1.9706 l 1.8529,-5.1765 h 1.4412 v 9.6471 h -1.1618 v -5.3088 c 0.0000,-0.6471 0.0515,-1.4265 0.0515 -1.4265c 0.0515,-0.7794 0.1103,-1.4265 0.1103 -1.4265h -0.0588 l -0.7794,2.1471 l -1.8529,5.0441 h -0.6912 l -1.8676,-5.0441 l -0.7647,-2.1471 h -0.0588 c 0.0441,0.6471 0.1029,1.4265 0.1029 1.4265c 0.0588,0.7794 0.0588,1.4265 0.0588 1.4265v 5.3088 h -1.1324 v -9.6471 ZM 41.6681,544.8235 ZM 43.4916,536.2059 c -0.3529,-0.0000 -0.5956,-0.2206 -0.5956 -0.2206c -0.2426,-0.2206 -0.2426,-0.5588 -0.2426 -0.5588c 0.0000,-0.3529 0.2426,-0.5662 0.2426 -0.5662c 0.2426,-0.2132 0.5956,-0.2132 0.5956 -0.2132c 0.3529,0.0000 0.5956,0.2132 0.5956 0.2132c 0.2426,0.2132 0.2426,0.5662 0.2426 0.5662c 0.0000,0.3382 -0.2426,0.5588 -0.2426 0.5588c -0.2426,0.2206 -0.5956,0.2206 -0.5956 0.2206ZM 43.4916,536.2059 ZM 42.8739,537.6765 h 1.2059 v 7.1471 h -1.2059 v -7.1471 ZM 45.2857,544.8235 ZM 46.6092,535.1765 h 2.8676 c 0.7353,0.0000 1.3456,0.1324 1.3456 0.1324c 0.6103,0.1324 1.0441,0.4118 1.0441 0.4118c 0.4338,0.2794 0.6765,0.7279 0.6765 0.7279c 0.2426,0.4485 0.2426,1.0809 0.2426 1.0809c 0.0000,0.7206 -0.4118,1.3015 -0.4118 1.3015c -0.4118,0.5809 -1.2647,0.8015 -1.2647 0.8015v 0.0588 c 1.0588,0.1618 1.6471,0.7353 1.6471 0.7353c 0.5882,0.5735 0.5882,1.5735 0.5882 1.5735c 0.0000,0.7059 -0.2647,1.2353 -0.2647 1.2353c -0.2647,0.5294 -0.7500,0.8824 -0.7500 0.8824c -0.4853,0.3529 -1.1618,0.5294 -1.1618 0.5294c -0.6765,0.1765 -1.4853,0.1765 -1.4853 0.1765h -3.0735 v -9.6471 ZM 46.6092,535.1765 ZM 49.2563,539.2941 c 1.2500,0.0000 1.7868,-0.4265 1.7868 -0.4265c 0.5368,-0.4265 0.5368,-1.2353 0.5368 -1.2353c 0.0000,-0.7941 -0.5662,-1.1397 -0.5662 -1.1397c -0.5662,-0.3456 -1.6985,-0.3456 -1.6985 -0.3456h -1.4853 v 3.1471 h 1.4265 ZM 49.2563,539.2941 ZM 49.5063,543.8529 c 1.2500,0.0000 1.9412,-0.4632 1.9412 -0.4632c 0.6912,-0.4632 0.6912,-1.4485 0.6912 -1.4485c 0.0000,-0.8971 -0.6765,-1.3162 -0.6765 -1.3162c -0.6765,-0.4191 -1.9559,-0.4191 -1.9559 -0.4191h -1.6765 v 3.6471 h 1.6765 Z"/></g><g stroke-linejoin="bevel" stroke-opacity="0.0" fill-opacity="1.0" stroke="rgb(0,0,0)" stroke-width="0.0" fill="rgb(0,0,0)" stroke-linecap="butt" stroke-miterlimit="10.0"><path d="M 21.2122,421.5735 ZM 22.3739,420.5735 h 2.1471 v -6.9118 h -1.7059 v -0.7794 c 0.6471,-0.1176 1.1250,-0.2868 1.1250 -0.2868c 0.4779,-0.1691 0.8603,-0.4044 0.8603 -0.4044h 0.9265 v 8.3824 h 1.9412 v 1.0000 h -5.2941 v -1.0000 ZM 31.4916,421.5735 ZM 32.8151,411.9265 h 1.4412 l 1.8676,5.1765 l 0.7059,1.9706 h 0.0588 l 0.6765,-1.9706 l 1.8529,-5.1765 h 1.4412 v 9.6471 h -1.1618 v -5.3088 c 0.0000,-0.6471 0.0515,-1.4265 0.0515 -1.4265c 0.0515,-0.7794 0.1103,-1.4265 0.1103 -1.4265h -0.0588 l -0.7794,2.1471 l -1.8529,5.0441 h -0.6912 l -1.8676,-5.0441 l -0.7647,-2.1471 h -0.0588 c 0.0441,0.6471 0.1029,1.4265 0.1029 1.4265c 0.0588,0.7794 0.0588,1.4265 0.0588 1.4265v 5.3088 h -1.1324 v -9.6471 ZM 42.1828,421.5735 ZM 44.0063,412.9559 c -0.3529,-0.0000 -0.5956,-0.2206 -0.5956 -0.2206c -0.2426,-0.2206 -0.2426,-0.5588 -0.2426 -0.5588c 0.0000,-0.3529 0.2426,-0.5662 0.2426 -0.5662c 0.2426,-0.2132 0.5956,-0.2132 0.5956 -0.2132c 0.3529,0.0000 0.5956,0.2132 0.5956 0.2132c 0.2426,0.2132 0.2426,0.5662 0.2426 0.5662c 0.0000,0.3382 -0.2426,0.5588 -0.2426 0.5588c -0.2426,0.2206 -0.5956,0.2206 -0.5956 0.2206ZM 44.0063,412.9559 ZM 43.3887,414.4265 h 1.2059 v 7.1471 h -1.2059 v -7.1471 ZM 45.8004,421.5735 ZM 47.1239,411.9265 h 2.8676 c 0.7353,0.0000 1.3456,0.1324 1.3456 0.1324c 0.6103,0.1324 1.0441,0.4118 1.0441 0.4118c 0.4338,0.2794 0.6765,0.7279 0.6765 0.7279c 0.2426,0.4485 0.2426,1.0809 0.2426 1.0809c 0.0000,0.7206 -0.4118,1.3015 -0.4118 1.3015c -0.4118,0.5809 -1.2647,0.8015 -1.2647 0.8015v 0.0588 c 1.0588,0.1618 1.6471,0.7353 1.6471 0.7353c 0.5882,0.5735 0.5882,1.5735 0.5882 1.5735c 0.0000,0.7059 -0.2647,1.2353 -0.2647 1.2353c -0.2647,0.5294 -0.7500,0.8824 -0.7500 0.8824c -0.4853,0.3529 -1.1618,0.5294 -1.1618 0.5294c -0.6765,0.1765 -1.4853,0.1765 -1.4853 0.1765h -3.0735 v -9.6471 ZM 47.1239,411.9265 ZM 49.7710,416.0441 c 1.2500,0.0000 1.7868,-0.4265 1.7868 -0.4265c 0.5368,-0.4265 0.5368,-1.2353 0.5368 -1.2353c 0.0000,-0.7941 -0.5662,-1.1397 -0.5662 -1.1397c -0.5662,-0.3456 -1.6985,-0.3456 -1.6985 -0.3456h -1.4853 v 3.1471 h 1.4265 ZM 49.7710,416.0441 ZM 50.0210,420.6029 c 1.2500,0.0000 1.9412,-0.4632 1.9412 -0.4632c 0.6912,-0.4632 0.6912,-1.4485 0.6912 -1.4485c 0.0000,-0.8971 -0.6765,-1.3162 -0.6765 -1.3162c -0.6765,-0.4191 -1.9559,-0.4191 -1.9559 -0.4191h -1.6765 v 3.6471 h 1.6765 Z"/></g><g stroke-linejoin="bevel" stroke-opacity="0.0" fill-opacity="1.0" stroke="rgb(0,0,0)" stroke-width="0.0" fill="rgb(0,0,0)" stroke-linecap="butt" stroke-miterlimit="10.0"><path d="M 20.5798,298.3235 ZM 21.1681,297.6029 c 1.0588,-1.0588 1.8824,-1.9118 1.8824 -1.9118c 0.8235,-0.8529 1.3824,-1.5809 1.3824 -1.5809c 0.5588,-0.7279 0.8529,-1.3382 0.8529 -1.3382c 0.2941,-0.6103 0.2941,-1.1838 0.2941 -1.1838c 0.0000,-0.8088 -0.4412,-1.3235 -0.4412 -1.3235c -0.4412,-0.5147 -1.3382,-0.5147 -1.3382 -0.5147c -0.5882,-0.0000 -1.0882,0.3309 -1.0882 0.3309c -0.5000,0.3309 -0.9118,0.8015 -0.9118 0.8015l -0.6912,-0.6912 c 0.5882,-0.6471 1.2500,-1.0368 1.2500 -1.0368c 0.6618,-0.3897 1.5882,-0.3897 1.5882 -0.3897c 1.3088,0.0000 2.0588,0.7574 2.0588 0.7574c 0.7500,0.7574 0.7500,2.0074 0.7500 2.0074c 0.0000,0.6618 -0.2868,1.3309 -0.2868 1.3309c -0.2868,0.6691 -0.7941,1.3824 -0.7941 1.3824c -0.5074,0.7132 -1.2059,1.4853 -1.2059 1.4853c -0.6985,0.7721 -1.5368,1.6397 -1.5368 1.6397c 0.3824,-0.0294 0.7941,-0.0588 0.7941 -0.0588c 0.4118,-0.0294 0.7794,-0.0294 0.7794 -0.0294h 2.7206 v 1.0441 h -6.0588 v -0.7206 ZM 30.8592,298.3235 ZM 32.1828,288.6765 h 1.4412 l 1.8676,5.1765 l 0.7059,1.9706 h 0.0588 l 0.6765,-1.9706 l 1.8529,-5.1765 h 1.4412 v 9.6471 h -1.1618 v -5.3088 c 0.0000,-0.6471 0.0515,-1.4265 0.0515 -1.4265c 0.0515,-0.7794 0.1103,-1.4265 0.1103 -1.4265h -0.0588 l -0.7794,2.1471 l -1.8529,5.0441 h -0.6912 l -1.8676,-5.0441 l -0.7647,-2.1471 h -0.0588 c 0.0441,0.6471 0.1029,1.4265 0.1029 1.4265c 0.0588,0.7794 0.0588,1.4265 0.0588 1.4265v 5.3088 h -1.1324 v -9.6471 ZM 41.5504,298.3235 ZM 43.3739,289.7059 c -0.3529,-0.0000 -0.5956,-0.2206 -0.5956 -0.2206c -0.2426,-0.2206 -0.2426,-0.5588 -0.2426 -0.5588c 0.0000,-0.3529 0.2426,-0.5662 0.2426 -0.5662c 0.2426,-0.2132 0.5956,-0.2132 0.5956 -0.2132c 0.3529,0.0000 0.5956,0.2132 0.5956 0.2132c 0.2426,0.2132 0.2426,0.5662 0.2426 0.5662c 0.0000,0.3382 -0.2426,0.5588 -0.2426 0.5588c -0.2426,0.2206 -0.5956,0.2206 -0.5956 0.2206ZM 43.3739,289.7059 ZM 42.7563,291.1765 h 1.2059 v 7.1471 h -1.2059 v -7.1471 ZM 45.1681,298.3235 ZM 46.4916,288.6765 h 2.8676 c 0.7353,0.0000 1.3456,0.1324 1.3456 0.1324c 0.6103,0.1324 1.0441,0.4118 1.0441 0.4118c 0.4338,0.2794 0.6765,0.7279 0.6765 0.7279c 0.2426,0.4485 0.2426,1.0809 0.2426 1.0809c 0.0000,0.7206 -0.4118,1.3015 -0.4118 1.3015c -0.4118,0.5809 -1.2647,0.8015 -1.2647 0.8015v 0.0588 c 1.0588,0.1618 1.6471,0.7353 1.6471 0.7353c 0.5882,0.5735 0.5882,1.5735 0.5882 1.5735c 0.0000,0.7059 -0.2647,1.2353 -0.2647 1.2353c -0.2647,0.5294 -0.7500,0.8824 -0.7500 0.8824c -0.4853,0.3529 -1.1618,0.5294 -1.1618 0.5294c -0.6765,0.1765 -1.4853,0.1765 -1.4853 0.1765h -3.0735 v -9.6471 ZM 46.4916,288.6765 ZM 49.1387,292.7941 c 1.2500,0.0000 1.7868,-0.4265 1.7868 -0.4265c 0.5368,-0.4265 0.5368,-1.2353 0.5368 -1.2353c 0.0000,-0.7941 -0.5662,-1.1397 -0.5662 -1.1397c -0.5662,-0.3456 -1.6985,-0.3456 -1.6985 -0.3456h -1.4853 v 3.1471 h 1.4265 ZM 49.1387,292.7941 ZM 49.3887,297.3529 c 1.2500,0.0000 1.9412,-0.4632 1.9412 -0.4632c 0.6912,-0.4632 0.6912,-1.4485 0.6912 -1.4485c 0.0000,-0.8971 -0.6765,-1.3162 -0.6765 -1.3162c -0.6765,-0.4191 -1.9559,-0.4191 -1.9559 -0.4191h -1.6765 v 3.6471 h 1.6765 Z"/></g><g stroke-linejoin="bevel" stroke-opacity="0.0" fill-opacity="1.0" stroke="rgb(0,0,0)" stroke-width="0.0" fill="rgb(0,0,0)" stroke-linecap="butt" stroke-miterlimit="10.0"><path d="M 20.4328,175.0735 ZM 21.4328,173.1324 c 0.4265,0.4412 0.9926,0.7794 0.9926 0.7794c 0.5662,0.3382 1.4044,0.3382 1.4044 0.3382c 0.8529,0.0000 1.3971,-0.4632 1.3971 -0.4632c 0.5441,-0.4632 0.5441,-1.2574 0.5441 -1.2574c 0.0000,-0.4118 -0.1544,-0.7574 -0.1544 -0.7574c -0.1544,-0.3456 -0.5074,-0.5956 -0.5074 -0.5956c -0.3529,-0.2500 -0.9265,-0.3824 -0.9265 -0.3824c -0.5735,-0.1324 -1.4118,-0.1324 -1.4118 -0.1324v -0.9265 c 0.7500,0.0000 1.2574,-0.1324 1.2574 -0.1324c 0.5074,-0.1324 0.8235,-0.3676 0.8235 -0.3676c 0.3162,-0.2353 0.4485,-0.5588 0.4485 -0.5588c 0.1324,-0.3235 0.1324,-0.6912 0.1324 -0.6912c 0.0000,-0.6912 -0.4338,-1.0882 -0.4338 -1.0882c -0.4338,-0.3971 -1.1838,-0.3971 -1.1838 -0.3971c -0.5882,-0.0000 -1.0809,0.2647 -1.0809 0.2647c -0.4926,0.2647 -0.9191,0.6912 -0.9191 0.6912l -0.6471,-0.7647 c 0.5441,-0.5147 1.1985,-0.8456 1.1985 -0.8456c 0.6544,-0.3309 1.4926,-0.3309 1.4926 -0.3309c 0.6176,0.0000 1.1324,0.1618 1.1324 0.1618c 0.5147,0.1618 0.8897,0.4632 0.8897 0.4632c 0.3750,0.3015 0.5809,0.7426 0.5809 0.7426c 0.2059,0.4412 0.2059,1.0147 0.2059 1.0147c 0.0000,0.8529 -0.4706,1.3971 -0.4706 1.3971c -0.4706,0.5441 -1.2353,0.8382 -1.2353 0.8382v 0.0588 c 0.4265,0.1029 0.7941,0.3015 0.7941 0.3015c 0.3676,0.1985 0.6471,0.5000 0.6471 0.5000c 0.2794,0.3015 0.4338,0.6985 0.4338 0.6985c 0.1544,0.3971 0.1544,0.8824 0.1544 0.8824c 0.0000,0.6176 -0.2426,1.1176 -0.2426 1.1176c -0.2426,0.5000 -0.6618,0.8456 -0.6618 0.8456c -0.4191,0.3456 -0.9779,0.5294 -0.9779 0.5294c -0.5588,0.1838 -1.2059,0.1838 -1.2059 0.1838c -0.5588,-0.0000 -1.0221,-0.1103 -1.0221 -0.1103c -0.4632,-0.1103 -0.8456,-0.2941 -0.8456 -0.2941c -0.3824,-0.1838 -0.6838,-0.4191 -0.6838 -0.4191c -0.3015,-0.2353 -0.5368,-0.5000 -0.5368 -0.5000ZM 30.7122,175.0735 ZM 32.0357,165.4265 h 1.4412 l 1.8676,5.1765 l 0.7059,1.9706 h 0.0588 l 0.6765,-1.9706 l 1.8529,-5.1765 h 1.4412 v 9.6471 h -1.1618 v -5.3088 c 0.0000,-0.6471 0.0515,-1.4265 0.0515 -1.4265c 0.0515,-0.7794 0.1103,-1.4265 0.1103 -1.4265h -0.0588 l -0.7794,2.1471 l -1.8529,5.0441 h -0.6912 l -1.8676,-5.0441 l -0.7647,-2.1471 h -0.0588 c 0.0441,0.6471 0.1029,1.4265 0.1029 1.4265c 0.0588,0.7794 0.0588,1.4265 0.0588 1.4265v 5.3088 h -1.1324 v -9.6471 ZM 41.4034,175.0735 ZM 43.2269,166.4559 c -0.3529,-0.0000 -0.5956,-0.2206 -0.5956 -0.2206c -0.2426,-0.2206 -0.2426,-0.5588 -0.2426 -0.5588c 0.0000,-0.3529 0.2426,-0.5662 0.2426 -0.5662c 0.2426,-0.2132 0.5956,-0.2132 0.5956 -0.2132c 0.3529,0.0000 0.5956,0.2132 0.5956 0.2132c 0.2426,0.2132 0.2426,0.5662 0.2426 0.5662c 0.0000,0.3382 -0.2426,0.5588 -0.2426 0.5588c -0.2426,0.2206 -0.5956,0.2206 -0.5956 0.2206ZM 43.2269,166.4559 ZM 42.6092,167.9265 h 1.2059 v 7.1471 h -1.2059 v -7.1471 ZM 45.0210,175.0735 ZM 46.3445,165.4265 h 2.8676 c 0.7353,0.0000 1.3456,0.1324 1.3456 0.1324c 0.6103,0.1324 1.0441,0.4118 1.0441 0.4118c 0.4338,0.2794 0.6765,0.7279 0.6765 0.7279c 0.2426,0.4485 0.2426,1.0809 0.2426 1.0809c 0.0000,0.7206 -0.4118,1.3015 -0.4118 1.3015c -0.4118,0.5809 -1.2647,0.8015 -1.2647 0.8015v 0.0588 c 1.0588,0.1618 1.6471,0.7353 1.6471 0.7353c 0.5882,0.5735 0.5882,1.5735 0.5882 1.5735c 0.0000,0.7059 -0.2647,1.2353 -0.2647 1.2353c -0.2647,0.5294 -0.7500,0.8824 -0.7500 0.8824c -0.4853,0.3529 -1.1618,0.5294 -1.1618 0.5294c -0.6765,0.1765 -1.4853,0.1765 -1.4853 0.1765h -3.0735 v -9.6471 ZM 46.3445,165.4265 ZM 48.9916,169.5441 c 1.2500,0.0000 1.7868,-0.4265 1.7868 -0.4265c 0.5368,-0.4265 0.5368,-1.2353 0.5368 -1.2353c 0.0000,-0.7941 -0.5662,-1.1397 -0.5662 -1.1397c -0.5662,-0.3456 -1.6985,-0.3456 -1.6985 -0.3456h -1.4853 v 3.1471 h 1.4265 ZM 48.9916,169.5441 ZM 49.2416,174.1029 c 1.2500,0.0000 1.9412,-0.4632 1.9412 -0.4632c 0.6912,-0.4632 0.6912,-1.4485 0.6912 -1.4485c 0.0000,-0.8971 -0.6765,-1.3162 -0.6765 -1.3162c -0.6765,-0.4191 -1.9559,-0.4191 -1.9559 -0.4191h -1.6765 v 3.6471 h 1.6765 Z"/></g><g stroke-linejoin="bevel" stroke-opacity="0.0" fill-opacity="1.0" stroke="rgb(0,0,0)" stroke-width="0.0" fill="rgb(0,0,0)" stroke-linecap="butt" stroke-miterlimit="10.0"><path d="M 20.3004,51.8235 ZM 24.7710,48.2647 v -2.7206 c 0.0000,-0.3824 0.0221,-0.9044 0.0221 -0.9044c 0.0221,-0.5221 0.0515,-0.9044 0.0515 -0.9044h -0.0588 c -0.1765,0.3382 -0.3676,0.6618 -0.3676 0.6618c -0.1912,0.3235 -0.3971,0.6618 -0.3971 0.6618l -2.1912,3.2059 h 2.9412 ZM 24.7710,48.2647 ZM 27.1975,49.2353 h -1.2794 v 2.5882 h -1.1471 v -2.5882 h -4.2206 v -0.7941 l 4.0147,-6.0000 h 1.3529 v 5.8235 h 1.2794 v 0.9706 ZM 30.5798,51.8235 ZM 31.9034,42.1765 h 1.4412 l 1.8676,5.1765 l 0.7059,1.9706 h 0.0588 l 0.6765,-1.9706 l 1.8529,-5.1765 h 1.4412 v 9.6471 h -1.1618 v -5.3088 c 0.0000,-0.6471 0.0515,-1.4265 0.0515 -1.4265c 0.0515,-0.7794 0.1103,-1.4265 0.1103 -1.4265h -0.0588 l -0.7794,2.1471 l -1.8529,5.0441 h -0.6912 l -1.8676,-5.0441 l -0.7647,-2.1471 h -0.0588 c 0.0441,0.6471 0.1029,1.4265 0.1029 1.4265c 0.0588,0.7794 0.0588,1.4265 0.0588 1.4265v 5.3088 h -1.1324 v -9.6471 ZM 41.2710,51.8235 ZM 43.0945,43.2059 c -0.3529,-0.0000 -0.5956,-0.2206 -0.5956 -0.2206c -0.2426,-0.2206 -0.2426,-0.5588 -0.2426 -0.5588c 0.0000,-0.3529 0.2426,-0.5662 0.2426 -0.5662c 0.2426,-0.2132 0.5956,-0.2132 0.5956 -0.2132c 0.3529,0.0000 0.5956,0.2132 0.5956 0.2132c 0.2426,0.2132 0.2426,0.5662 0.2426 0.5662c 0.0000,0.3382 -0.2426,0.5588 -0.2426 0.5588c -0.2426,0.2206 -0.5956,0.2206 -0.5956 0.2206ZM 43.0945,43.2059 ZM 42.4769,44.6765 h 1.2059 v 7.1471 h -1.2059 v -7.1471 ZM 44.8887,51.8235 ZM 46.2122,42.1765 h 2.8676 c 0.7353,0.0000 1.3456,0.1324 1.3456 0.1324c 0.6103,0.1324 1.0441,0.4118 1.0441 0.4118c 0.4338,0.2794 0.6765,0.7279 0.6765 0.7279c 0.2426,0.4485 0.2426,1.0809 0.2426 1.0809c 0.0000,0.7206 -0.4118,1.3015 -0.4118 1.3015c -0.4118,0.5809 -1.2647,0.8015 -1.2647 0.8015v 0.0588 c 1.0588,0.1618 1.6471,0.7353 1.6471 0.7353c 0.5882,0.5735 0.5882,1.5735 0.5882 1.5735c 0.0000,0.7059 -0.2647,1.2353 -0.2647 1.2353c -0.2647,0.5294 -0.7500,0.8824 -0.7500 0.8824c -0.4853,0.3529 -1.1618,0.5294 -1.1618 0.5294c -0.6765,0.1765 -1.4853,0.1765 -1.4853 0.1765h -3.0735 v -9.6471 ZM 46.2122,42.1765 ZM 48.8592,46.2941 c 1.2500,0.0000 1.7868,-0.4265 1.7868 -0.4265c 0.5368,-0.4265 0.5368,-1.2353 0.5368 -1.2353c 0.0000,-0.7941 -0.5662,-1.1397 -0.5662 -1.1397c -0.5662,-0.3456 -1.6985,-0.3456 -1.6985 -0.3456h -1.4853 v 3.1471 h 1.4265 ZM 48.8592,46.2941 ZM 49.1092,50.8529 c 1.2500,0.0000 1.9412,-0.4632 1.9412 -0.4632c 0.6912,-0.4632 0.6912,-1.4485 0.6912 -1.4485c 0.0000,-0.8971 -0.6765,-1.3162 -0.6765 -1.3162c -0.6765,-0.4191 -1.9559,-0.4191 -1.9559 -0.4191h -1.6765 v 3.6471 h 1.6765 Z"/></g><g stroke-linejoin="miter" stroke-opacity="1.0" fill-opacity="0.0" stroke="rgb(0,0,0)" stroke-width="0.9999999999999997" fill="rgb(0,0,0)" stroke-linecap="square" stroke-miterlimit="10.0"><path d="M 62.6975,540.0000 h 650.3529 "/></g><g stroke-linejoin="bevel" stroke-opacity="0.0" fill-opacity="1.0" stroke="rgb(0,0,0)" stroke-width="0.0" fill="rgb(0,0,0)" stroke-linecap="butt" stroke-miterlimit="10.0"><path d="M 172.5882,566.0000 ZM 173.7479,564.1513 c 0.5378,0.4370 1.1008,0.7059 1.1008 0.7059c 0.5630,0.2689 1.3025,0.2689 1.3025 0.2689c 0.8067,0.0000 1.2101,-0.3697 1.2101 -0.3697c 0.4034,-0.3697 0.4034,-0.9076 0.4034 -0.9076c 0.0000,-0.3193 -0.1681,-0.5546 -0.1681 -0.5546c -0.1681,-0.2353 -0.4286,-0.4118 -0.4286 -0.4118c -0.2605,-0.1765 -0.5966,-0.3109 -0.5966 -0.3109l -0.6723,-0.2689 c -0.4370,-0.1513 -0.8739,-0.3445 -0.8739 -0.3445c -0.4370,-0.1933 -0.7815,-0.4706 -0.7815 -0.4706c -0.3445,-0.2773 -0.5630,-0.6471 -0.5630 -0.6471c -0.2185,-0.3697 -0.2185,-0.8908 -0.2185 -0.8908c 0.0000,-0.4874 0.1933,-0.9160 0.1933 -0.9160c 0.1933,-0.4286 0.5546,-0.7395 0.5546 -0.7395c 0.3613,-0.3109 0.8824,-0.4874 0.8824 -0.4874c 0.5210,-0.1765 1.1765,-0.1765 1.1765 -0.1765c 0.7731,0.0000 1.4202,0.2689 1.4202 0.2689c 0.6471,0.2689 1.1176,0.6555 1.1176 0.6555l -0.6555,0.8739 c -0.4202,-0.3193 -0.8739,-0.5210 -0.8739 -0.5210c -0.4538,-0.2017 -0.9916,-0.2017 -0.9916 -0.2017c -0.7731,-0.0000 -1.1345,0.3529 -1.1345 0.3529c -0.3613,0.3529 -0.3613,0.8235 -0.3613 0.8235c 0.0000,0.2857 0.1513,0.4958 0.1513 0.4958c 0.1513,0.2101 0.4034,0.3697 0.4034 0.3697c 0.2521,0.1597 0.5798,0.2857 0.5798 0.2857c 0.3277,0.1261 0.6807,0.2605 0.6807 0.2605c 0.4370,0.1681 0.8824,0.3529 0.8824 0.3529c 0.4454,0.1849 0.7983,0.4622 0.7983 0.4622c 0.3529,0.2773 0.5798,0.6807 0.5798 0.6807c 0.2269,0.4034 0.2269,0.9748 0.2269 0.9748c 0.0000,0.5042 -0.1933,0.9412 -0.1933 0.9412c -0.1933,0.4370 -0.5714,0.7731 -0.5714 0.7731c -0.3782,0.3361 -0.9412,0.5294 -0.9412 0.5294c -0.5630,0.1933 -1.2857,0.1933 -1.2857 0.1933c -0.8739,-0.0000 -1.6639,-0.3193 -1.6639 -0.3193c -0.7899,-0.3193 -1.3782,-0.8067 -1.3782 -0.8067ZM 179.6303,566.0000 ZM 181.2437,558.9580 h -1.2101 v -1.0420 l 1.2773,-0.0840 l 0.1681,-2.2857 h 1.1597 v 2.2857 h 2.2017 v 1.1261 h -2.2017 v 4.5378 c 0.0000,0.7563 0.2773,1.1681 0.2773 1.1681c 0.2773,0.4118 0.9832,0.4118 0.9832 0.4118c 0.2185,0.0000 0.4706,-0.0672 0.4706 -0.0672c 0.2521,-0.0672 0.4538,-0.1513 0.4538 -0.1513l 0.2689,1.0420 c -0.3361,0.1176 -0.7311,0.2101 -0.7311 0.2101c -0.3950,0.0924 -0.7815,0.0924 -0.7815 0.0924c -0.6555,-0.0000 -1.1008,-0.2017 -1.1008 -0.2017c -0.4454,-0.2017 -0.7227,-0.5546 -0.7227 -0.5546c -0.2773,-0.3529 -0.3950,-0.8571 -0.3950 -0.8571c -0.1176,-0.5042 -0.1176,-1.1092 -0.1176 -1.1092v -4.5210 ZM 185.3109,566.0000 ZM 186.6891,557.8319 h 1.1429 l 0.1176,1.4790 h 0.0504 c 0.4202,-0.7731 1.0168,-1.2269 1.0168 -1.2269c 0.5966,-0.4538 1.3025,-0.4538 1.3025 -0.4538c 0.4874,0.0000 0.8739,0.1681 0.8739 0.1681l -0.2689,1.2101 c -0.2017,-0.0672 -0.3697,-0.1008 -0.3697 -0.1008c -0.1681,-0.0336 -0.4202,-0.0336 -0.4202 -0.0336c -0.5210,-0.0000 -1.0840,0.4202 -1.0840 0.4202c -0.5630,0.4202 -0.9832,1.4622 -0.9832 1.4622v 5.2437 h -1.3782 v -8.1681 ZM 190.9748,566.0000 ZM 191.7479,561.9328 c 0.0000,-1.0084 0.3109,-1.8067 0.3109 -1.8067c 0.3109,-0.7983 0.8235,-1.3529 0.8235 -1.3529c 0.5126,-0.5546 1.1681,-0.8487 1.1681 -0.8487c 0.6555,-0.2941 1.3613,-0.2941 1.3613 -0.2941c 0.7731,0.0000 1.3866,0.2689 1.3866 0.2689c 0.6134,0.2689 1.0252,0.7731 1.0252 0.7731c 0.4118,0.5042 0.6303,1.2101 0.6303 1.2101c 0.2185,0.7059 0.2185,1.5798 0.2185 1.5798c 0.0000,0.4538 -0.0504,0.7563 -0.0504 0.7563h -5.5126 c 0.0840,1.3277 0.8151,2.1008 0.8151 2.1008c 0.7311,0.7731 1.9076,0.7731 1.9076 0.7731c 0.5882,0.0000 1.0840,-0.1765 1.0840 -0.1765c 0.4958,-0.1765 0.9496,-0.4622 0.9496 -0.4622l 0.4874,0.9076 c -0.5378,0.3361 -1.1933,0.5882 -1.1933 0.5882c -0.6555,0.2521 -1.4958,0.2521 -1.4958 0.2521c -0.8235,-0.0000 -1.5378,-0.2941 -1.5378 -0.2941c -0.7143,-0.2941 -1.2437,-0.8403 -1.2437 -0.8403c -0.5294,-0.5462 -0.8319,-1.3361 -0.8319 -1.3361c -0.3025,-0.7899 -0.3025,-1.7983 -0.3025 -1.7983ZM 191.7479,561.9328 ZM 197.4622,561.3109 c 0.0000,-1.2605 -0.5294,-1.9244 -0.5294 -1.9244c -0.5294,-0.6639 -1.4874,-0.6639 -1.4874 -0.6639c -0.4370,-0.0000 -0.8319,0.1765 -0.8319 0.1765c -0.3950,0.1765 -0.7143,0.5042 -0.7143 0.5042c -0.3193,0.3277 -0.5294,0.8067 -0.5294 0.8067c -0.2101,0.4790 -0.2773,1.1008 -0.2773 1.1008h 4.3697 ZM 199.0756,566.0000 ZM 200.0504,563.8824 c 0.0000,-1.3445 1.2017,-2.0588 1.2017 -2.0588c 1.2017,-0.7143 3.8235,-1.0000 3.8235 -1.0000c 0.0000,-0.3866 -0.0756,-0.7563 -0.0756 -0.7563c -0.0756,-0.3697 -0.2689,-0.6555 -0.2689 -0.6555c -0.1933,-0.2857 -0.5126,-0.4622 -0.5126 -0.4622c -0.3193,-0.1765 -0.8235,-0.1765 -0.8235 -0.1765c -0.7227,-0.0000 -1.3361,0.2689 -1.3361 0.2689c -0.6134,0.2689 -1.1008,0.6050 -1.1008 0.6050l -0.5546,-0.9580 c 0.5714,-0.3697 1.3950,-0.7143 1.3950 -0.7143c 0.8235,-0.3445 1.8151,-0.3445 1.8151 -0.3445c 1.4958,0.0000 2.1681,0.9160 2.1681 0.9160c 0.6723,0.9160 0.6723,2.4454 0.6723 2.4454v 5.0084 h -1.1429 l -0.1176,-0.9748 h -0.0336 c -0.5882,0.4874 -1.2689,0.8319 -1.2689 0.8319c -0.6807,0.3445 -1.4370,0.3445 -1.4370 0.3445c -1.0420,-0.0000 -1.7227,-0.6050 -1.7227 -0.6050c -0.6807,-0.6050 -0.6807,-1.7143 -0.6807 -1.7143ZM 200.0504,563.8824 ZM 201.4118,563.7815 c 0.0000,0.7059 0.4118,1.0084 0.4118 1.0084c 0.4118,0.3025 1.0168,0.3025 1.0168 0.3025c 0.5882,0.0000 1.1176,-0.2773 1.1176 -0.2773c 0.5294,-0.2773 1.1176,-0.8151 1.1176 -0.8151v -2.2689 c -1.0252,0.1345 -1.7311,0.3193 -1.7311 0.3193c -0.7059,0.1849 -1.1345,0.4370 -1.1345 0.4370c -0.4286,0.2521 -0.6134,0.5798 -0.6134 0.5798c -0.1849,0.3277 -0.1849,0.7143 -0.1849 0.7143ZM 207.6807,566.0000 ZM 209.0588,557.8319 h 1.1429 l 0.1176,1.1765 h 0.0504 c 0.5378,-0.5882 1.1681,-0.9832 1.1681 -0.9832c 0.6303,-0.3950 1.3697,-0.3950 1.3697 -0.3950c 0.9412,0.0000 1.4706,0.4118 1.4706 0.4118c 0.5294,0.4118 0.7815,1.1513 0.7815 1.1513c 0.6387,-0.7059 1.2857,-1.1345 1.2857 -1.1345c 0.6471,-0.4286 1.4034,-0.4286 1.4034 -0.4286c 1.2605,0.0000 1.8739,0.8067 1.8739 0.8067c 0.6134,0.8067 0.6134,2.3866 0.6134 2.3866v 5.1765 h -1.3782 v -4.9916 c 0.0000,-1.1597 -0.3697,-1.6723 -0.3697 -1.6723c -0.3697,-0.5126 -1.1429,-0.5126 -1.1429 -0.5126c -0.9244,-0.0000 -2.0504,1.2605 -2.0504 1.2605v 5.9160 h -1.3782 v -4.9916 c 0.0000,-1.1597 -0.3697,-1.6723 -0.3697 -1.6723c -0.3697,-0.5126 -1.1597,-0.5126 -1.1597 -0.5126c -0.9244,-0.0000 -2.0504,1.2605 -2.0504 1.2605v 5.9160 h -1.3782 v -8.1681 ZM 221.6134,566.0000 ZM 223.6975,556.1513 c -0.4034,-0.0000 -0.6807,-0.2521 -0.6807 -0.2521c -0.2773,-0.2521 -0.2773,-0.6387 -0.2773 -0.6387c 0.0000,-0.4034 0.2773,-0.6471 0.2773 -0.6471c 0.2773,-0.2437 0.6807,-0.2437 0.6807 -0.2437c 0.4034,0.0000 0.6807,0.2437 0.6807 0.2437c 0.2773,0.2437 0.2773,0.6471 0.2773 0.6471c 0.0000,0.3866 -0.2773,0.6387 -0.2773 0.6387c -0.2773,0.2521 -0.6807,0.2521 -0.6807 0.2521ZM 223.6975,556.1513 ZM 222.9916,557.8319 h 1.3782 v 8.1681 h -1.3782 v -8.1681 ZM 225.7479,566.0000 ZM 227.1261,557.8319 h 1.1429 l 0.1176,1.1765 h 0.0504 c 0.5882,-0.5882 1.2353,-0.9832 1.2353 -0.9832c 0.6471,-0.3950 1.5042,-0.3950 1.5042 -0.3950c 1.2941,0.0000 1.8908,0.8067 1.8908 0.8067c 0.5966,0.8067 0.5966,2.3866 0.5966 2.3866v 5.1765 h -1.3782 v -4.9916 c 0.0000,-1.1597 -0.3697,-1.6723 -0.3697 -1.6723c -0.3697,-0.5126 -1.1765,-0.5126 -1.1765 -0.5126c -0.6387,-0.0000 -1.1261,0.3193 -1.1261 0.3193c -0.4874,0.3193 -1.1092,0.9412 -1.1092 0.9412v 5.9160 h -1.3782 v -8.1681 ZM 234.9412,566.0000 ZM 236.9076,567.3782 c 0.0000,0.6555 0.6303,1.0420 0.6303 1.0420c 0.6303,0.3866 1.7395,0.3866 1.7395 0.3866c 0.5882,0.0000 1.0672,-0.1429 1.0672 -0.1429c 0.4790,-0.1429 0.8151,-0.3697 0.8151 -0.3697c 0.3361,-0.2269 0.5210,-0.5294 0.5210 -0.5294c 0.1849,-0.3025 0.1849,-0.6218 0.1849 -0.6218c 0.0000,-0.5714 -0.4202,-0.7899 -0.4202 -0.7899c -0.4202,-0.2185 -1.2269,-0.2185 -1.2269 -0.2185h -1.4118 c -0.2353,-0.0000 -0.5126,-0.0252 -0.5126 -0.0252c -0.2773,-0.0252 -0.5462,-0.1092 -0.5462 -0.1092c -0.4370,0.3193 -0.6387,0.6723 -0.6387 0.6723c -0.2017,0.3529 -0.2017,0.7059 -0.2017 0.7059ZM 236.9076,567.3782 ZM 235.6975,567.5630 c 0.0000,-0.5210 0.3193,-0.9916 0.3193 -0.9916c 0.3193,-0.4706 0.8739,-0.8571 0.8739 -0.8571v -0.0672 c -0.3025,-0.1849 -0.5126,-0.5126 -0.5126 -0.5126c -0.2101,-0.3277 -0.2101,-0.8151 -0.2101 -0.8151c 0.0000,-0.5210 0.2857,-0.9076 0.2857 -0.9076c 0.2857,-0.3866 0.6050,-0.6050 0.6050 -0.6050v -0.0672 c -0.4034,-0.3361 -0.7311,-0.8992 -0.7311 -0.8992c -0.3277,-0.5630 -0.3277,-1.3025 -0.3277 -1.3025c 0.0000,-0.6723 0.2437,-1.2101 0.2437 -1.2101c 0.2437,-0.5378 0.6639,-0.9160 0.6639 -0.9160c 0.4202,-0.3782 0.9832,-0.5798 0.9832 -0.5798c 0.5630,-0.2017 1.1849,-0.2017 1.1849 -0.2017c 0.3361,0.0000 0.6303,0.0588 0.6303 0.0588c 0.2941,0.0588 0.5294,0.1429 0.5294 0.1429h 2.8403 v 1.0588 h -1.6807 c 0.2857,0.2857 0.4790,0.7227 0.4790 0.7227c 0.1933,0.4370 0.1933,0.9580 0.1933 0.9580c 0.0000,0.6555 -0.2353,1.1849 -0.2353 1.1849c -0.2353,0.5294 -0.6387,0.8908 -0.6387 0.8908c -0.4034,0.3613 -0.9496,0.5630 -0.9496 0.5630c -0.5462,0.2017 -1.1681,0.2017 -1.1681 0.2017c -0.3025,-0.0000 -0.6218,-0.0756 -0.6218 -0.0756c -0.3193,-0.0756 -0.6050,-0.2101 -0.6050 -0.2101c -0.2185,0.1849 -0.3697,0.4118 -0.3697 0.4118c -0.1513,0.2269 -0.1513,0.5630 -0.1513 0.5630c 0.0000,0.3866 0.3025,0.6387 0.3025 0.6387c 0.3025,0.2521 1.1429,0.2521 1.1429 0.2521h 1.5798 c 1.4286,0.0000 2.1429,0.4622 2.1429 0.4622c 0.7143,0.4622 0.7143,1.4874 0.7143 1.4874c 0.0000,0.5714 -0.2857,1.0840 -0.2857 1.0840c -0.2857,0.5126 -0.8235,0.8992 -0.8235 0.8992c -0.5378,0.3866 -1.3025,0.6134 -1.3025 0.6134c -0.7647,0.2269 -1.7227,0.2269 -1.7227 0.2269c -0.7563,-0.0000 -1.3782,-0.1429 -1.3782 -0.1429c -0.6218,-0.1429 -1.0672,-0.4286 -1.0672 -0.4286c -0.4454,-0.2857 -0.6891,-0.6891 -0.6891 -0.6891c -0.2437,-0.4034 -0.2437,-0.9412 -0.2437 -0.9412ZM 235.6975,567.5630 ZM 239.0756,562.4874 c 0.3529,0.0000 0.6639,-0.1345 0.6639 -0.1345c 0.3109,-0.1345 0.5546,-0.3866 0.5546 -0.3866c 0.2437,-0.2521 0.3782,-0.6134 0.3782 -0.6134c 0.1345,-0.3613 0.1345,-0.8151 0.1345 -0.8151c 0.0000,-0.9076 -0.5042,-1.4034 -0.5042 -1.4034c -0.5042,-0.4958 -1.2269,-0.4958 -1.2269 -0.4958c -0.7227,-0.0000 -1.2269,0.4958 -1.2269 0.4958c -0.5042,0.4958 -0.5042,1.4034 -0.5042 1.4034c 0.0000,0.4538 0.1345,0.8151 0.1345 0.8151c 0.1345,0.3613 0.3782,0.6134 0.3782 0.6134c 0.2437,0.2521 0.5546,0.3866 0.5546 0.3866c 0.3109,0.1345 0.6639,0.1345 0.6639 0.1345ZM 243.4118,566.0000 ZM 247.0084,568.9580 c -1.0420,-1.6807 -1.6303,-3.5462 -1.6303 -3.5462c -0.5882,-1.8655 -0.5882,-4.0840 -0.5882 -4.0840c 0.0000,-2.2185 0.5882,-4.0756 0.5882 -4.0756c 0.5882,-1.8571 1.6303,-3.5546 1.6303 -3.5546l 0.8571,0.4034 c -0.9748,1.6134 -1.4538,3.4538 -1.4538 3.4538c -0.4790,1.8403 -0.4790,3.7731 -0.4790 3.7731c 0.0000,1.9328 0.4790,3.7731 0.4790 3.7731c 0.4790,1.8403 1.4538,3.4538 1.4538 3.4538l -0.8571,0.4034 h 0.0000 ZM 248.5042,566.0000 ZM 250.0168,554.9748 h 1.6471 l 2.1345,5.9160 l 0.8067,2.2521 h 0.0672 l 0.7731,-2.2521 l 2.1176,-5.9160 h 1.6471 v 11.0252 h -1.3277 v -6.0672 c 0.0000,-0.7395 0.0588,-1.6303 0.0588 -1.6303c 0.0588,-0.8908 0.1261,-1.6303 0.1261 -1.6303h -0.0672 l -0.8908,2.4538 l -2.1176,5.7647 h -0.7899 l -2.1345,-5.7647 l -0.8739,-2.4538 h -0.0672 c 0.0504,0.7395 0.1176,1.6303 0.1176 1.6303c 0.0672,0.8908 0.0672,1.6303 0.0672 1.6303v 6.0672 h -1.2941 v -11.0252 ZM 260.7227,566.0000 ZM 262.8067,556.1513 c -0.4034,-0.0000 -0.6807,-0.2521 -0.6807 -0.2521c -0.2773,-0.2521 -0.2773,-0.6387 -0.2773 -0.6387c 0.0000,-0.4034 0.2773,-0.6471 0.2773 -0.6471c 0.2773,-0.2437 0.6807,-0.2437 0.6807 -0.2437c 0.4034,0.0000 0.6807,0.2437 0.6807 0.2437c 0.2773,0.2437 0.2773,0.6471 0.2773 0.6471c 0.0000,0.3866 -0.2773,0.6387 -0.2773 0.6387c -0.2773,0.2521 -0.6807,0.2521 -0.6807 0.2521ZM 262.8067,556.1513 ZM 262.1008,557.8319 h 1.3782 v 8.1681 h -1.3782 v -8.1681 ZM 264.8571,566.0000 ZM 266.3697,554.9748 h 3.2773 c 0.8403,0.0000 1.5378,0.1513 1.5378 0.1513c 0.6975,0.1513 1.1933,0.4706 1.1933 0.4706c 0.4958,0.3193 0.7731,0.8319 0.7731 0.8319c 0.2773,0.5126 0.2773,1.2353 0.2773 1.2353c 0.0000,0.8235 -0.4706,1.4874 -0.4706 1.4874c -0.4706,0.6639 -1.4454,0.9160 -1.4454 0.9160v 0.0672 c 1.2101,0.1849 1.8824,0.8403 1.8824 0.8403c 0.6723,0.6555 0.6723,1.7983 0.6723 1.7983c 0.0000,0.8067 -0.3025,1.4118 -0.3025 1.4118c -0.3025,0.6050 -0.8571,1.0084 -0.8571 1.0084c -0.5546,0.4034 -1.3277,0.6050 -1.3277 0.6050c -0.7731,0.2017 -1.6975,0.2017 -1.6975 0.2017h -3.5126 v -11.0252 ZM 266.3697,554.9748 ZM 269.3950,559.6807 c 1.4286,0.0000 2.0420,-0.4874 2.0420 -0.4874c 0.6134,-0.4874 0.6134,-1.4118 0.6134 -1.4118c 0.0000,-0.9076 -0.6471,-1.3025 -0.6471 -1.3025c -0.6471,-0.3950 -1.9412,-0.3950 -1.9412 -0.3950h -1.6975 v 3.5966 h 1.6303 ZM 269.3950,559.6807 ZM 269.6807,564.8908 c 1.4286,0.0000 2.2185,-0.5294 2.2185 -0.5294c 0.7899,-0.5294 0.7899,-1.6555 0.7899 -1.6555c 0.0000,-1.0252 -0.7731,-1.5042 -0.7731 -1.5042c -0.7731,-0.4790 -2.2353,-0.4790 -2.2353 -0.4790h -1.9160 v 4.1681 h 1.9160 ZM 274.7395,566.0000 ZM 275.3782,568.5546 c 0.9748,-1.6134 1.4538,-3.4538 1.4538 -3.4538c 0.4790,-1.8403 0.4790,-3.7731 0.4790 -3.7731c 0.0000,-1.9328 -0.4790,-3.7731 -0.4790 -3.7731c -0.4790,-1.8403 -1.4538,-3.4538 -1.4538 -3.4538l 0.8571,-0.4034 c 1.0420,1.6975 1.6303,3.5546 1.6303 3.5546c 0.5882,1.8571 0.5882,4.0756 0.5882 4.0756c 0.0000,2.2185 -0.5882,4.0840 -0.5882 4.0840c -0.5882,1.8655 -1.6303,3.5462 -1.6303 3.5462l -0.8571,-0.4034 h 0.0000 Z"/></g><g stroke-linejoin="bevel" stroke-opacity="0.0" fill-opacity="1.0" stroke="rgb(0,0,0)" stroke-width="0.0" fill="rgb(0,0,0)" stroke-linecap="butt" stroke-miterlimit="10.0"><path d="M 473.5126,566.0000 ZM 474.6723,564.1513 c 0.5378,0.4370 1.1008,0.7059 1.1008 0.7059c 0.5630,0.2689 1.3025,0.2689 1.3025 0.2689c 0.8067,0.0000 1.2101,-0.3697 1.2101 -0.3697c 0.4034,-0.3697 0.4034,-0.9076 0.4034 -0.9076c 0.0000,-0.3193 -0.1681,-0.5546 -0.1681 -0.5546c -0.1681,-0.2353 -0.4286,-0.4118 -0.4286 -0.4118c -0.2605,-0.1765 -0.5966,-0.3109 -0.5966 -0.3109l -0.6723,-0.2689 c -0.4370,-0.1513 -0.8739,-0.3445 -0.8739 -0.3445c -0.4370,-0.1933 -0.7815,-0.4706 -0.7815 -0.4706c -0.3445,-0.2773 -0.5630,-0.6471 -0.5630 -0.6471c -0.2185,-0.3697 -0.2185,-0.8908 -0.2185 -0.8908c 0.0000,-0.4874 0.1933,-0.9160 0.1933 -0.9160c 0.1933,-0.4286 0.5546,-0.7395 0.5546 -0.7395c 0.3613,-0.3109 0.8824,-0.4874 0.8824 -0.4874c 0.5210,-0.1765 1.1765,-0.1765 1.1765 -0.1765c 0.7731,0.0000 1.4202,0.2689 1.4202 0.2689c 0.6471,0.2689 1.1176,0.6555 1.1176 0.6555l -0.6555,0.8739 c -0.4202,-0.3193 -0.8739,-0.5210 -0.8739 -0.5210c -0.4538,-0.2017 -0.9916,-0.2017 -0.9916 -0.2017c -0.7731,-0.0000 -1.1345,0.3529 -1.1345 0.3529c -0.3613,0.3529 -0.3613,0.8235 -0.3613 0.8235c 0.0000,0.2857 0.1513,0.4958 0.1513 0.4958c 0.1513,0.2101 0.4034,0.3697 0.4034 0.3697c 0.2521,0.1597 0.5798,0.2857 0.5798 0.2857c 0.3277,0.1261 0.6807,0.2605 0.6807 0.2605c 0.4370,0.1681 0.8824,0.3529 0.8824 0.3529c 0.4454,0.1849 0.7983,0.4622 0.7983 0.4622c 0.3529,0.2773 0.5798,0.6807 0.5798 0.6807c 0.2269,0.4034 0.2269,0.9748 0.2269 0.9748c 0.0000,0.5042 -0.1933,0.9412 -0.1933 0.9412c -0.1933,0.4370 -0.5714,0.7731 -0.5714 0.7731c -0.3782,0.3361 -0.9412,0.5294 -0.9412 0.5294c -0.5630,0.1933 -1.2857,0.1933 -1.2857 0.1933c -0.8739,-0.0000 -1.6639,-0.3193 -1.6639 -0.3193c -0.7899,-0.3193 -1.3782,-0.8067 -1.3782 -0.8067ZM 480.5546,566.0000 ZM 482.1681,558.9580 h -1.2101 v -1.0420 l 1.2773,-0.0840 l 0.1681,-2.2857 h 1.1597 v 2.2857 h 2.2017 v 1.1261 h -2.2017 v 4.5378 c 0.0000,0.7563 0.2773,1.1681 0.2773 1.1681c 0.2773,0.4118 0.9832,0.4118 0.9832 0.4118c 0.2185,0.0000 0.4706,-0.0672 0.4706 -0.0672c 0.2521,-0.0672 0.4538,-0.1513 0.4538 -0.1513l 0.2689,1.0420 c -0.3361,0.1176 -0.7311,0.2101 -0.7311 0.2101c -0.3950,0.0924 -0.7815,0.0924 -0.7815 0.0924c -0.6555,-0.0000 -1.1008,-0.2017 -1.1008 -0.2017c -0.4454,-0.2017 -0.7227,-0.5546 -0.7227 -0.5546c -0.2773,-0.3529 -0.3950,-0.8571 -0.3950 -0.8571c -0.1176,-0.5042 -0.1176,-1.1092 -0.1176 -1.1092v -4.5210 ZM 486.2353,566.0000 ZM 487.6134,557.8319 h 1.1429 l 0.1176,1.4790 h 0.0504 c 0.4202,-0.7731 1.0168,-1.2269 1.0168 -1.2269c 0.5966,-0.4538 1.3025,-0.4538 1.3025 -0.4538c 0.4874,0.0000 0.8739,0.1681 0.8739 0.1681l -0.2689,1.2101 c -0.2017,-0.0672 -0.3697,-0.1008 -0.3697 -0.1008c -0.1681,-0.0336 -0.4202,-0.0336 -0.4202 -0.0336c -0.5210,-0.0000 -1.0840,0.4202 -1.0840 0.4202c -0.5630,0.4202 -0.9832,1.4622 -0.9832 1.4622v 5.2437 h -1.3782 v -8.1681 ZM 491.8992,566.0000 ZM 492.6723,561.9328 c 0.0000,-1.0084 0.3109,-1.8067 0.3109 -1.8067c 0.3109,-0.7983 0.8235,-1.3529 0.8235 -1.3529c 0.5126,-0.5546 1.1681,-0.8487 1.1681 -0.8487c 0.6555,-0.2941 1.3613,-0.2941 1.3613 -0.2941c 0.7731,0.0000 1.3866,0.2689 1.3866 0.2689c 0.6134,0.2689 1.0252,0.7731 1.0252 0.7731c 0.4118,0.5042 0.6303,1.2101 0.6303 1.2101c 0.2185,0.7059 0.2185,1.5798 0.2185 1.5798c 0.0000,0.4538 -0.0504,0.7563 -0.0504 0.7563h -5.5126 c 0.0840,1.3277 0.8151,2.1008 0.8151 2.1008c 0.7311,0.7731 1.9076,0.7731 1.9076 0.7731c 0.5882,0.0000 1.0840,-0.1765 1.0840 -0.1765c 0.4958,-0.1765 0.9496,-0.4622 0.9496 -0.4622l 0.4874,0.9076 c -0.5378,0.3361 -1.1933,0.5882 -1.1933 0.5882c -0.6555,0.2521 -1.4958,0.2521 -1.4958 0.2521c -0.8235,-0.0000 -1.5378,-0.2941 -1.5378 -0.2941c -0.7143,-0.2941 -1.2437,-0.8403 -1.2437 -0.8403c -0.5294,-0.5462 -0.8319,-1.3361 -0.8319 -1.3361c -0.3025,-0.7899 -0.3025,-1.7983 -0.3025 -1.7983ZM 492.6723,561.9328 ZM 498.3866,561.3109 c 0.0000,-1.2605 -0.5294,-1.9244 -0.5294 -1.9244c -0.5294,-0.6639 -1.4874,-0.6639 -1.4874 -0.6639c -0.4370,-0.0000 -0.8319,0.1765 -0.8319 0.1765c -0.3950,0.1765 -0.7143,0.5042 -0.7143 0.5042c -0.3193,0.3277 -0.5294,0.8067 -0.5294 0.8067c -0.2101,0.4790 -0.2773,1.1008 -0.2773 1.1008h 4.3697 ZM 500.0000,566.0000 ZM 500.9748,563.8824 c 0.0000,-1.3445 1.2017,-2.0588 1.2017 -2.0588c 1.2017,-0.7143 3.8235,-1.0000 3.8235 -1.0000c 0.0000,-0.3866 -0.0756,-0.7563 -0.0756 -0.7563c -0.0756,-0.3697 -0.2689,-0.6555 -0.2689 -0.6555c -0.1933,-0.2857 -0.5126,-0.4622 -0.5126 -0.4622c -0.3193,-0.1765 -0.8235,-0.1765 -0.8235 -0.1765c -0.7227,-0.0000 -1.3361,0.2689 -1.3361 0.2689c -0.6134,0.2689 -1.1008,0.6050 -1.1008 0.6050l -0.5546,-0.9580 c 0.5714,-0.3697 1.3950,-0.7143 1.3950 -0.7143c 0.8235,-0.3445 1.8151,-0.3445 1.8151 -0.3445c 1.4958,0.0000 2.1681,0.9160 2.1681 0.9160c 0.6723,0.9160 0.6723,2.4454 0.6723 2.4454v 5.0084 h -1.1429 l -0.1176,-0.9748 h -0.0336 c -0.5882,0.4874 -1.2689,0.8319 -1.2689 0.8319c -0.6807,0.3445 -1.4370,0.3445 -1.4370 0.3445c -1.0420,-0.0000 -1.7227,-0.6050 -1.7227 -0.6050c -0.6807,-0.6050 -0.6807,-1.7143 -0.6807 -1.7143ZM 500.9748,563.8824 ZM 502.3361,563.7815 c 0.0000,0.7059 0.4118,1.0084 0.4118 1.0084c 0.4118,0.3025 1.0168,0.3025 1.0168 0.3025c 0.5882,0.0000 1.1176,-0.2773 1.1176 -0.2773c 0.5294,-0.2773 1.1176,-0.8151 1.1176 -0.8151v -2.2689 c -1.0252,0.1345 -1.7311,0.3193 -1.7311 0.3193c -0.7059,0.1849 -1.1345,0.4370 -1.1345 0.4370c -0.4286,0.2521 -0.6134,0.5798 -0.6134 0.5798c -0.1849,0.3277 -0.1849,0.7143 -0.1849 0.7143ZM 508.6050,566.0000 ZM 509.9832,557.8319 h 1.1429 l 0.1176,1.1765 h 0.0504 c 0.5378,-0.5882 1.1681,-0.9832 1.1681 -0.9832c 0.6303,-0.3950 1.3697,-0.3950 1.3697 -0.3950c 0.9412,0.0000 1.4706,0.4118 1.4706 0.4118c 0.5294,0.4118 0.7815,1.1513 0.7815 1.1513c 0.6387,-0.7059 1.2857,-1.1345 1.2857 -1.1345c 0.6471,-0.4286 1.4034,-0.4286 1.4034 -0.4286c 1.2605,0.0000 1.8739,0.8067 1.8739 0.8067c 0.6134,0.8067 0.6134,2.3866 0.6134 2.3866v 5.1765 h -1.3782 v -4.9916 c 0.0000,-1.1597 -0.3697,-1.6723 -0.3697 -1.6723c -0.3697,-0.5126 -1.1429,-0.5126 -1.1429 -0.5126c -0.9244,-0.0000 -2.0504,1.2605 -2.0504 1.2605v 5.9160 h -1.3782 v -4.9916 c 0.0000,-1.1597 -0.3697,-1.6723 -0.3697 -1.6723c -0.3697,-0.5126 -1.1597,-0.5126 -1.1597 -0.5126c -0.9244,-0.0000 -2.0504,1.2605 -2.0504 1.2605v 5.9160 h -1.3782 v -8.1681 ZM 522.5378,566.0000 ZM 524.6218,556.1513 c -0.4034,-0.0000 -0.6807,-0.2521 -0.6807 -0.2521c -0.2773,-0.2521 -0.2773,-0.6387 -0.2773 -0.6387c 0.0000,-0.4034 0.2773,-0.6471 0.2773 -0.6471c 0.2773,-0.2437 0.6807,-0.2437 0.6807 -0.2437c 0.4034,0.0000 0.6807,0.2437 0.6807 0.2437c 0.2773,0.2437 0.2773,0.6471 0.2773 0.6471c 0.0000,0.3866 -0.2773,0.6387 -0.2773 0.6387c -0.2773,0.2521 -0.6807,0.2521 -0.6807 0.2521ZM 524.6218,556.1513 ZM 523.9160,557.8319 h 1.3782 v 8.1681 h -1.3782 v -8.1681 ZM 526.6723,566.0000 ZM 528.0504,557.8319 h 1.1429 l 0.1176,1.1765 h 0.0504 c 0.5882,-0.5882 1.2353,-0.9832 1.2353 -0.9832c 0.6471,-0.3950 1.5042,-0.3950 1.5042 -0.3950c 1.2941,0.0000 1.8908,0.8067 1.8908 0.8067c 0.5966,0.8067 0.5966,2.3866 0.5966 2.3866v 5.1765 h -1.3782 v -4.9916 c 0.0000,-1.1597 -0.3697,-1.6723 -0.3697 -1.6723c -0.3697,-0.5126 -1.1765,-0.5126 -1.1765 -0.5126c -0.6387,-0.0000 -1.1261,0.3193 -1.1261 0.3193c -0.4874,0.3193 -1.1092,0.9412 -1.1092 0.9412v 5.9160 h -1.3782 v -8.1681 ZM 535.8655,566.0000 ZM 537.8319,567.3782 c 0.0000,0.6555 0.6303,1.0420 0.6303 1.0420c 0.6303,0.3866 1.7395,0.3866 1.7395 0.3866c 0.5882,0.0000 1.0672,-0.1429 1.0672 -0.1429c 0.4790,-0.1429 0.8151,-0.3697 0.8151 -0.3697c 0.3361,-0.2269 0.5210,-0.5294 0.5210 -0.5294c 0.1849,-0.3025 0.1849,-0.6218 0.1849 -0.6218c 0.0000,-0.5714 -0.4202,-0.7899 -0.4202 -0.7899c -0.4202,-0.2185 -1.2269,-0.2185 -1.2269 -0.2185h -1.4118 c -0.2353,-0.0000 -0.5126,-0.0252 -0.5126 -0.0252c -0.2773,-0.0252 -0.5462,-0.1092 -0.5462 -0.1092c -0.4370,0.3193 -0.6387,0.6723 -0.6387 0.6723c -0.2017,0.3529 -0.2017,0.7059 -0.2017 0.7059ZM 537.8319,567.3782 ZM 536.6218,567.5630 c 0.0000,-0.5210 0.3193,-0.9916 0.3193 -0.9916c 0.3193,-0.4706 0.8739,-0.8571 0.8739 -0.8571v -0.0672 c -0.3025,-0.1849 -0.5126,-0.5126 -0.5126 -0.5126c -0.2101,-0.3277 -0.2101,-0.8151 -0.2101 -0.8151c 0.0000,-0.5210 0.2857,-0.9076 0.2857 -0.9076c 0.2857,-0.3866 0.6050,-0.6050 0.6050 -0.6050v -0.0672 c -0.4034,-0.3361 -0.7311,-0.8992 -0.7311 -0.8992c -0.3277,-0.5630 -0.3277,-1.3025 -0.3277 -1.3025c 0.0000,-0.6723 0.2437,-1.2101 0.2437 -1.2101c 0.2437,-0.5378 0.6639,-0.9160 0.6639 -0.9160c 0.4202,-0.3782 0.9832,-0.5798 0.9832 -0.5798c 0.5630,-0.2017 1.1849,-0.2017 1.1849 -0.2017c 0.3361,0.0000 0.6303,0.0588 0.6303 0.0588c 0.2941,0.0588 0.5294,0.1429 0.5294 0.1429h 2.8403 v 1.0588 h -1.6807 c 0.2857,0.2857 0.4790,0.7227 0.4790 0.7227c 0.1933,0.4370 0.1933,0.9580 0.1933 0.9580c 0.0000,0.6555 -0.2353,1.1849 -0.2353 1.1849c -0.2353,0.5294 -0.6387,0.8908 -0.6387 0.8908c -0.4034,0.3613 -0.9496,0.5630 -0.9496 0.5630c -0.5462,0.2017 -1.1681,0.2017 -1.1681 0.2017c -0.3025,-0.0000 -0.6218,-0.0756 -0.6218 -0.0756c -0.3193,-0.0756 -0.6050,-0.2101 -0.6050 -0.2101c -0.2185,0.1849 -0.3697,0.4118 -0.3697 0.4118c -0.1513,0.2269 -0.1513,0.5630 -0.1513 0.5630c 0.0000,0.3866 0.3025,0.6387 0.3025 0.6387c 0.3025,0.2521 1.1429,0.2521 1.1429 0.2521h 1.5798 c 1.4286,0.0000 2.1429,0.4622 2.1429 0.4622c 0.7143,0.4622 0.7143,1.4874 0.7143 1.4874c 0.0000,0.5714 -0.2857,1.0840 -0.2857 1.0840c -0.2857,0.5126 -0.8235,0.8992 -0.8235 0.8992c -0.5378,0.3866 -1.3025,0.6134 -1.3025 0.6134c -0.7647,0.2269 -1.7227,0.2269 -1.7227 0.2269c -0.7563,-0.0000 -1.3782,-0.1429 -1.3782 -0.1429c -0.6218,-0.1429 -1.0672,-0.4286 -1.0672 -0.4286c -0.4454,-0.2857 -0.6891,-0.6891 -0.6891 -0.6891c -0.2437,-0.4034 -0.2437,-0.9412 -0.2437 -0.9412ZM 536.6218,567.5630 ZM 540.0000,562.4874 c 0.3529,0.0000 0.6639,-0.1345 0.6639 -0.1345c 0.3109,-0.1345 0.5546,-0.3866 0.5546 -0.3866c 0.2437,-0.2521 0.3782,-0.6134 0.3782 -0.6134c 0.1345,-0.3613 0.1345,-0.8151 0.1345 -0.8151c 0.0000,-0.9076 -0.5042,-1.4034 -0.5042 -1.4034c -0.5042,-0.4958 -1.2269,-0.4958 -1.2269 -0.4958c -0.7227,-0.0000 -1.2269,0.4958 -1.2269 0.4958c -0.5042,0.4958 -0.5042,1.4034 -0.5042 1.4034c 0.0000,0.4538 0.1345,0.8151 0.1345 0.8151c 0.1345,0.3613 0.3782,0.6134 0.3782 0.6134c 0.2437,0.2521 0.5546,0.3866 0.5546 0.3866c 0.3109,0.1345 0.6639,0.1345 0.6639 0.1345ZM 544.3361,566.0000 ZM 545.0252,561.2605 h 3.8655 v 1.0588 h -3.8655 v -1.0588 ZM 549.5630,566.0000 ZM 554.6218,555.1597 c -0.4538,-0.2017 -0.9244,-0.2017 -0.9244 -0.2017c -1.1429,-0.0000 -1.1429,1.5798 -1.1429 1.5798v 1.2941 h 1.7311 v 1.1261 h -1.7311 v 7.0420 h -1.3782 v -7.0420 h -1.1092 v -1.0420 l 1.1092,-0.0840 v -1.2941 c 0.0000,-1.2605 0.5798,-1.9832 0.5798 -1.9832c 0.5798,-0.7227 1.8067,-0.7227 1.8067 -0.7227c 0.3866,0.0000 0.7311,0.0756 0.7311 0.0756c 0.3445,0.0756 0.6303,0.1933 0.6303 0.1933ZM 554.2185,566.0000 ZM 555.4790,557.8319 h 1.3950 v 4.9916 c 0.0000,1.1597 0.3613,1.6723 0.3613 1.6723c 0.3613,0.5126 1.1681,0.5126 1.1681 0.5126c 0.6387,0.0000 1.1261,-0.3277 1.1261 -0.3277c 0.4874,-0.3277 1.0756,-1.0504 1.0756 -1.0504v -5.7983 h 1.3782 v 8.1681 h -1.1429 l -0.1176,-1.2773 h -0.0504 c -0.5714,0.6723 -1.2017,1.0756 -1.2017 1.0756c -0.6303,0.4034 -1.4874,0.4034 -1.4874 0.4034c -1.3109,-0.0000 -1.9076,-0.8067 -1.9076 -0.8067c -0.5966,-0.8067 -0.5966,-2.3866 -0.5966 -2.3866v -5.1765 ZM 563.3613,566.0000 ZM 564.5210,564.1513 c 0.5378,0.4370 1.1008,0.7059 1.1008 0.7059c 0.5630,0.2689 1.3025,0.2689 1.3025 0.2689c 0.8067,0.0000 1.2101,-0.3697 1.2101 -0.3697c 0.4034,-0.3697 0.4034,-0.9076 0.4034 -0.9076c 0.0000,-0.3193 -0.1681,-0.5546 -0.1681 -0.5546c -0.1681,-0.2353 -0.4286,-0.4118 -0.4286 -0.4118c -0.2605,-0.1765 -0.5966,-0.3109 -0.5966 -0.3109l -0.6723,-0.2689 c -0.4370,-0.1513 -0.8739,-0.3445 -0.8739 -0.3445c -0.4370,-0.1933 -0.7815,-0.4706 -0.7815 -0.4706c -0.3445,-0.2773 -0.5630,-0.6471 -0.5630 -0.6471c -0.2185,-0.3697 -0.2185,-0.8908 -0.2185 -0.8908c 0.0000,-0.4874 0.1933,-0.9160 0.1933 -0.9160c 0.1933,-0.4286 0.5546,-0.7395 0.5546 -0.7395c 0.3613,-0.3109 0.8824,-0.4874 0.8824 -0.4874c 0.5210,-0.1765 1.1765,-0.1765 1.1765 -0.1765c 0.7731,0.0000 1.4202,0.2689 1.4202 0.2689c 0.6471,0.2689 1.1176,0.6555 1.1176 0.6555l -0.6555,0.8739 c -0.4202,-0.3193 -0.8739,-0.5210 -0.8739 -0.5210c -0.4538,-0.2017 -0.9916,-0.2017 -0.9916 -0.2017c -0.7731,-0.0000 -1.1345,0.3529 -1.1345 0.3529c -0.3613,0.3529 -0.3613,0.8235 -0.3613 0.8235c 0.0000,0.2857 0.1513,0.4958 0.1513 0.4958c 0.1513,0.2101 0.4034,0.3697 0.4034 0.3697c 0.2521,0.1597 0.5798,0.2857 0.5798 0.2857c 0.3277,0.1261 0.6807,0.2605 0.6807 0.2605c 0.4370,0.1681 0.8824,0.3529 0.8824 0.3529c 0.4454,0.1849 0.7983,0.4622 0.7983 0.4622c 0.3529,0.2773 0.5798,0.6807 0.5798 0.6807c 0.2269,0.4034 0.2269,0.9748 0.2269 0.9748c 0.0000,0.5042 -0.1933,0.9412 -0.1933 0.9412c -0.1933,0.4370 -0.5714,0.7731 -0.5714 0.7731c -0.3782,0.3361 -0.9412,0.5294 -0.9412 0.5294c -0.5630,0.1933 -1.2857,0.1933 -1.2857 0.1933c -0.8739,-0.0000 -1.6639,-0.3193 -1.6639 -0.3193c -0.7899,-0.3193 -1.3782,-0.8067 -1.3782 -0.8067ZM 570.4034,566.0000 ZM 572.4874,556.1513 c -0.4034,-0.0000 -0.6807,-0.2521 -0.6807 -0.2521c -0.2773,-0.2521 -0.2773,-0.6387 -0.2773 -0.6387c 0.0000,-0.4034 0.2773,-0.6471 0.2773 -0.6471c 0.2773,-0.2437 0.6807,-0.2437 0.6807 -0.2437c 0.4034,0.0000 0.6807,0.2437 0.6807 0.2437c 0.2773,0.2437 0.2773,0.6471 0.2773 0.6471c 0.0000,0.3866 -0.2773,0.6387 -0.2773 0.6387c -0.2773,0.2521 -0.6807,0.2521 -0.6807 0.2521ZM 572.4874,556.1513 ZM 571.7815,557.8319 h 1.3782 v 8.1681 h -1.3782 v -8.1681 ZM 574.5378,566.0000 ZM 575.3109,561.9328 c 0.0000,-1.0252 0.3109,-1.8235 0.3109 -1.8235c 0.3109,-0.7983 0.8319,-1.3529 0.8319 -1.3529c 0.5210,-0.5546 1.2017,-0.8403 1.2017 -0.8403c 0.6807,-0.2857 1.4370,-0.2857 1.4370 -0.2857c 0.7563,0.0000 1.4370,0.2857 1.4370 0.2857c 0.6807,0.2857 1.2017,0.8403 1.2017 0.8403c 0.5210,0.5546 0.8319,1.3529 0.8319 1.3529c 0.3109,0.7983 0.3109,1.8235 0.3109 1.8235c 0.0000,1.0084 -0.3109,1.8067 -0.3109 1.8067c -0.3109,0.7983 -0.8319,1.3445 -0.8319 1.3445c -0.5210,0.5462 -1.2017,0.8319 -1.2017 0.8319c -0.6807,0.2857 -1.4370,0.2857 -1.4370 0.2857c -0.7563,-0.0000 -1.4370,-0.2857 -1.4370 -0.2857c -0.6807,-0.2857 -1.2017,-0.8319 -1.2017 -0.8319c -0.5210,-0.5462 -0.8319,-1.3445 -0.8319 -1.3445c -0.3109,-0.7983 -0.3109,-1.8067 -0.3109 -1.8067ZM 575.3109,561.9328 ZM 576.7395,561.9328 c 0.0000,0.7059 0.1681,1.2773 0.1681 1.2773c 0.1681,0.5714 0.4790,0.9832 0.4790 0.9832c 0.3109,0.4118 0.7479,0.6387 0.7479 0.6387c 0.4370,0.2269 0.9580,0.2269 0.9580 0.2269c 0.5210,0.0000 0.9580,-0.2269 0.9580 -0.2269c 0.4370,-0.2269 0.7479,-0.6387 0.7479 -0.6387c 0.3109,-0.4118 0.4790,-0.9832 0.4790 -0.9832c 0.1681,-0.5714 0.1681,-1.2773 0.1681 -1.2773c 0.0000,-0.7059 -0.1681,-1.2857 -0.1681 -1.2857c -0.1681,-0.5798 -0.4790,-1.0000 -0.4790 -1.0000c -0.3109,-0.4202 -0.7479,-0.6471 -0.7479 -0.6471c -0.4370,-0.2269 -0.9580,-0.2269 -0.9580 -0.2269c -0.5210,-0.0000 -0.9580,0.2269 -0.9580 0.2269c -0.4370,0.2269 -0.7479,0.6471 -0.7479 0.6471c -0.3109,0.4202 -0.4790,1.0000 -0.4790 1.0000c -0.1681,0.5798 -0.1681,1.2857 -0.1681 1.2857ZM 583.6471,566.0000 ZM 585.0252,557.8319 h 1.1429 l 0.1176,1.1765 h 0.0504 c 0.5882,-0.5882 1.2353,-0.9832 1.2353 -0.9832c 0.6471,-0.3950 1.5042,-0.3950 1.5042 -0.3950c 1.2941,0.0000 1.8908,0.8067 1.8908 0.8067c 0.5966,0.8067 0.5966,2.3866 0.5966 2.3866v 5.1765 h -1.3782 v -4.9916 c 0.0000,-1.1597 -0.3697,-1.6723 -0.3697 -1.6723c -0.3697,-0.5126 -1.1765,-0.5126 -1.1765 -0.5126c -0.6387,-0.0000 -1.1261,0.3193 -1.1261 0.3193c -0.4874,0.3193 -1.1092,0.9412 -1.1092 0.9412v 5.9160 h -1.3782 v -8.1681 ZM 592.8403,566.0000 ZM 596.4370,568.9580 c -1.0420,-1.6807 -1.6303,-3.5462 -1.6303 -3.5462c -0.5882,-1.8655 -0.5882,-4.0840 -0.5882 -4.0840c 0.0000,-2.2185 0.5882,-4.0756 0.5882 -4.0756c 0.5882,-1.8571 1.6303,-3.5546 1.6303 -3.5546l 0.8571,0.4034 c -0.9748,1.6134 -1.4538,3.4538 -1.4538 3.4538c -0.4790,1.8403 -0.4790,3.7731 -0.4790 3.7731c 0.0000,1.9328 0.4790,3.7731 0.4790 3.7731c 0.4790,1.8403 1.4538,3.4538 1.4538 3.4538l -0.8571,0.4034 h 0.0000 ZM 597.9328,566.0000 ZM 599.4454,554.9748 h 1.6471 l 2.1345,5.9160 l 0.8067,2.2521 h 0.0672 l 0.7731,-2.2521 l 2.1176,-5.9160 h 1.6471 v 11.0252 h -1.3277 v -6.0672 c 0.0000,-0.7395 0.0588,-1.6303 0.0588 -1.6303c 0.0588,-0.8908 0.1261,-1.6303 0.1261 -1.6303h -0.0672 l -0.8908,2.4538 l -2.1176,5.7647 h -0.7899 l -2.1345,-5.7647 l -0.8739,-2.4538 h -0.0672 c 0.0504,0.7395 0.1176,1.6303 0.1176 1.6303c 0.0672,0.8908 0.0672,1.6303 0.0672 1.6303v 6.0672 h -1.2941 v -11.0252 ZM 610.1513,566.0000 ZM 612.2353,556.1513 c -0.4034,-0.0000 -0.6807,-0.2521 -0.6807 -0.2521c -0.2773,-0.2521 -0.2773,-0.6387 -0.2773 -0.6387c 0.0000,-0.4034 0.2773,-0.6471 0.2773 -0.6471c 0.2773,-0.2437 0.6807,-0.2437 0.6807 -0.2437c 0.4034,0.0000 0.6807,0.2437 0.6807 0.2437c 0.2773,0.2437 0.2773,0.6471 0.2773 0.6471c 0.0000,0.3866 -0.2773,0.6387 -0.2773 0.6387c -0.2773,0.2521 -0.6807,0.2521 -0.6807 0.2521ZM 612.2353,556.1513 ZM 611.5294,557.8319 h 1.3782 v 8.1681 h -1.3782 v -8.1681 ZM 614.2857,566.0000 ZM 615.7983,554.9748 h 3.2773 c 0.8403,0.0000 1.5378,0.1513 1.5378 0.1513c 0.6975,0.1513 1.1933,0.4706 1.1933 0.4706c 0.4958,0.3193 0.7731,0.8319 0.7731 0.8319c 0.2773,0.5126 0.2773,1.2353 0.2773 1.2353c 0.0000,0.8235 -0.4706,1.4874 -0.4706 1.4874c -0.4706,0.6639 -1.4454,0.9160 -1.4454 0.9160v 0.0672 c 1.2101,0.1849 1.8824,0.8403 1.8824 0.8403c 0.6723,0.6555 0.6723,1.7983 0.6723 1.7983c 0.0000,0.8067 -0.3025,1.4118 -0.3025 1.4118c -0.3025,0.6050 -0.8571,1.0084 -0.8571 1.0084c -0.5546,0.4034 -1.3277,0.6050 -1.3277 0.6050c -0.7731,0.2017 -1.6975,0.2017 -1.6975 0.2017h -3.5126 v -11.0252 ZM 615.7983,554.9748 ZM 618.8235,559.6807 c 1.4286,0.0000 2.0420,-0.4874 2.0420 -0.4874c 0.6134,-0.4874 0.6134,-1.4118 0.6134 -1.4118c 0.0000,-0.9076 -0.6471,-1.3025 -0.6471 -1.3025c -0.6471,-0.3950 -1.9412,-0.3950 -1.9412 -0.3950h -1.6975 v 3.5966 h 1.6303 ZM 618.8235,559.6807 ZM 619.1092,564.8908 c 1.4286,0.0000 2.2185,-0.5294 2.2185 -0.5294c 0.7899,-0.5294 0.7899,-1.6555 0.7899 -1.6555c 0.0000,-1.0252 -0.7731,-1.5042 -0.7731 -1.5042c -0.7731,-0.4790 -2.2353,-0.4790 -2.2353 -0.4790h -1.9160 v 4.1681 h 1.9160 ZM 624.1681,566.0000 ZM 624.8067,568.5546 c 0.9748,-1.6134 1.4538,-3.4538 1.4538 -3.4538c 0.4790,-1.8403 0.4790,-3.7731 0.4790 -3.7731c 0.0000,-1.9328 -0.4790,-3.7731 -0.4790 -3.7731c -0.4790,-1.8403 -1.4538,-3.4538 -1.4538 -3.4538l 0.8571,-0.4034 c 1.0420,1.6975 1.6303,3.5546 1.6303 3.5546c 0.5882,1.8571 0.5882,4.0756 0.5882 4.0756c 0.0000,2.2185 -0.5882,4.0840 -0.5882 4.0840c -0.5882,1.8655 -1.6303,3.5462 -1.6303 3.5462l -0.8571,-0.4034 h 0.0000 Z"/></g><g stroke-linejoin="bevel" stroke-opacity="0.0" fill-opacity="1.0" stroke="rgb(0,0,0)" stroke-width="0.0" fill="rgb(0,0,255)" stroke-linecap="butt" stroke-miterlimit="10.0"><path d="M 10.0000,576.0000 v 14.0000 h 22.0000 v -14.0000 Z"/></g><g stroke-linejoin="bevel" stroke-opacity="0.0" fill-opacity="1.0" stroke="rgb(0,0,0)" stroke-width="0.0" fill="rgb(0,0,0)" stroke-linecap="butt" stroke-miterlimit="10.0"><path d="M 39.1029,585.2500 ZM 39.5588,584.6029 l 3.7647,-5.5147 h -3.3529 v -0.9853 h 4.8824 v 0.6471 l -3.7647,5.5147 h 3.8824 v 0.9853 h -5.4118 v -0.6471 ZM 45.3529,585.2500 ZM 47.1765,576.6324 c -0.3529,-0.0000 -0.5956,-0.2206 -0.5956 -0.2206c -0.2426,-0.2206 -0.2426,-0.5588 -0.2426 -0.5588c 0.0000,-0.3529 0.2426,-0.5662 0.2426 -0.5662c 0.2426,-0.2132 0.5956,-0.2132 0.5956 -0.2132c 0.3529,0.0000 0.5956,0.2132 0.5956 0.2132c 0.2426,0.2132 0.2426,0.5662 0.2426 0.5662c 0.0000,0.3382 -0.2426,0.5588 -0.2426 0.5588c -0.2426,0.2206 -0.5956,0.2206 -0.5956 0.2206ZM 47.1765,576.6324 ZM 46.5588,578.1029 h 1.2059 v 7.1471 h -1.2059 v -7.1471 ZM 48.9706,585.2500 ZM 51.3824,585.8529 v 2.4118 h -1.2059 v -10.1618 h 1.0000 l 0.1029,0.8235 h 0.0441 c 0.4853,-0.4118 1.0662,-0.7059 1.0662 -0.7059c 0.5809,-0.2941 1.2132,-0.2941 1.2132 -0.2941c 0.6912,0.0000 1.2206,0.2574 1.2206 0.2574c 0.5294,0.2574 0.8824,0.7353 0.8824 0.7353c 0.3529,0.4779 0.5368,1.1471 0.5368 1.1471c 0.1838,0.6691 0.1838,1.5074 0.1838 1.5074c 0.0000,0.9118 -0.2500,1.6250 -0.2500 1.6250c -0.2500,0.7132 -0.6765,1.2132 -0.6765 1.2132c -0.4265,0.5000 -0.9853,0.7574 -0.9853 0.7574c -0.5588,0.2574 -1.1765,0.2574 -1.1765 0.2574c -0.5000,-0.0000 -0.9926,-0.2206 -0.9926 -0.2206c -0.4926,-0.2206 -0.9926,-0.6029 -0.9926 -0.6029ZM 51.3824,585.8529 ZM 51.3824,583.6618 c 0.4853,0.4118 0.9412,0.5809 0.9412 0.5809c 0.4559,0.1691 0.8088,0.1691 0.8088 0.1691c 0.4412,0.0000 0.8162,-0.1985 0.8162 -0.1985c 0.3750,-0.1985 0.6471,-0.5588 0.6471 -0.5588c 0.2721,-0.3603 0.4265,-0.8897 0.4265 -0.8897c 0.1544,-0.5294 0.1544,-1.1912 0.1544 -1.1912c 0.0000,-0.5882 -0.1029,-1.0735 -0.1029 -1.0735c -0.1029,-0.4853 -0.3309,-0.8309 -0.3309 -0.8309c -0.2279,-0.3456 -0.5882,-0.5368 -0.5882 -0.5368c -0.3603,-0.1912 -0.8603,-0.1912 -0.8603 -0.1912c -0.4559,-0.0000 -0.9191,0.2500 -0.9191 0.2500c -0.4632,0.2500 -0.9926,0.7206 -0.9926 0.7206v 3.7500 Z"/></g></svg>